<svg width="46" height="31" viewBox="0 0 46 31" fill="none" xmlns="http://www.w3.org/2000/svg">
<path d="M43.8906 18.5647C43.831 19.1252 43.3386 19.7352 42.1967 20.3107C41.0786 20.8742 39.4648 21.3361 37.4519 21.6617C33.4334 22.3116 27.9396 22.4 21.9296 21.7612C15.9197 21.1223 10.5672 19.8809 6.77518 18.4006C4.87569 17.6592 3.39515 16.8683 2.42047 16.0823C1.42505 15.2796 1.07192 14.5797 1.1315 14.0192C1.19108 13.4588 1.68346 12.8487 2.82538 12.2733C3.94352 11.7098 5.55724 11.2478 7.57016 10.9222C11.5887 10.2723 17.0825 10.1839 23.0924 10.8228C29.1024 11.4617 34.4548 12.7031 38.2469 14.1833C40.1464 14.9248 41.6269 15.7157 42.6016 16.5016C43.597 17.3043 43.9502 18.0042 43.8906 18.5647Z" stroke="white"/>
<path d="M32.2686 15L29.2686 21L32.2686 31L35.2686 21L32.2686 15Z" fill="#FF2F61"/>
<path d="M23.2686 8L20.2686 14L23.2686 24L26.2686 14L23.2686 8Z" fill="#FF2F61"/>
<path d="M14.2686 0L11.2686 6L14.2686 16L17.2686 6L14.2686 0Z" fill="#FF2F61"/>
</svg>
