<?xml version="1.0" encoding="UTF-8" standalone="no" ?>
<!DOCTYPE svg PUBLIC "-//W3C//DTD SVG 1.1//EN" "http://www.w3.org/Graphics/SVG/1.1/DTD/svg11.dtd">
<svg xmlns="http://www.w3.org/2000/svg" xmlns:xlink="http://www.w3.org/1999/xlink" version="1.1" width="1080" height="1080" viewBox="0 0 1080 1080" xml:space="preserve">
<desc>Created with Fabric.js 5.2.4</desc>
<defs>
</defs>
<rect x="0" y="0" width="100%" height="100%" fill="transparent"></rect>
<g transform="matrix(1 0 0 1 540 540)" id="3176044b-0f72-444f-aae9-4b67567bd98d"  >
<rect style="stroke: none; stroke-width: 1; stroke-dasharray: none; stroke-linecap: butt; stroke-dashoffset: 0; stroke-linejoin: miter; stroke-miterlimit: 4; fill: rgb(255,255,255); fill-rule: nonzero; opacity: 1; visibility: hidden;" vector-effect="non-scaling-stroke"  x="-540" y="-540" rx="0" ry="0" width="1080" height="1080" />
</g>
<g transform="matrix(1 0 0 1 540 540)" id="36ab5842-788a-4cb7-b838-47c6c1424267"  >
</g>
<g transform="matrix(NaN NaN NaN NaN 0 0)"  >
<g style=""   >
</g>
</g>
<g transform="matrix(NaN NaN NaN NaN 0 0)"  >
<g style=""   >
</g>
</g>
<g transform="matrix(15.08 0 0 15.08 401.15 505.38)"  >
<path style="stroke: none; stroke-width: 1; stroke-dasharray: none; stroke-linecap: butt; stroke-dashoffset: 0; stroke-linejoin: miter; stroke-miterlimit: 4; fill: rgb(255,255,255); fill-rule: nonzero; opacity: 1;" vector-effect="non-scaling-stroke"  transform=" translate(-26.59, -10.21)" d="M 0 20.41 L 0 0 L 5.63 0 C 7.609999999999999 0 9.34 0.36 10.809999999999999 1.06 C 12.28 1.77 13.419999999999998 2.87 14.239999999999998 4.359999999999999 C 15.049999999999999 5.85 15.459999999999999 7.77 15.459999999999999 10.1 C 15.459999999999999 12.44 15.059999999999999 14.37 14.25 15.89 C 13.45 17.41 12.33 18.55 10.9 19.29 C 9.47 20.029999999999998 7.8100000000000005 20.4 5.91 20.4 L 0 20.4 z M 4.63 16.68 L 5.38 16.68 C 6.4399999999999995 16.68 7.38 16.47 8.18 16.05 C 8.98 15.63 9.61 14.940000000000001 10.059999999999999 13.98 C 10.509999999999998 13.02 10.729999999999999 11.73 10.729999999999999 10.100000000000001 C 10.729999999999999 8.470000000000002 10.509999999999998 7.190000000000001 10.059999999999999 6.270000000000001 C 9.61 5.350000000000001 8.989999999999998 4.690000000000001 8.189999999999998 4.300000000000002 C 7.389999999999998 3.9100000000000015 6.4499999999999975 3.7200000000000015 5.389999999999998 3.7200000000000015 L 4.629999999999998 3.7200000000000015 L 4.629999999999998 16.680000000000003 z M 19.44 20.41 L 16.72 0 L 21.509999999999998 0 L 22.139999999999997 10.86 C 22.159999999999997 11.74 22.179999999999996 12.58 22.189999999999998 13.399999999999999 C 22.2 14.209999999999999 22.22 15.079999999999998 22.24 15.999999999999998 L 22.369999999999997 15.999999999999998 C 22.519999999999996 15.079999999999998 22.679999999999996 14.209999999999997 22.859999999999996 13.389999999999999 C 23.039999999999996 12.569999999999999 23.209999999999997 11.729999999999999 23.379999999999995 10.87 L 24.759999999999994 5.169999999999999 L 27.699999999999996 5.169999999999999 L 28.979999999999997 10.87 C 29.15 11.7 29.319999999999997 12.53 29.499999999999996 13.36 C 29.679999999999996 14.18 29.839999999999996 15.07 29.989999999999995 16 L 30.119999999999994 16 C 30.139999999999993 15.06 30.159999999999993 14.18 30.179999999999993 13.36 L 30.23999999999999 10.87 L 30.77 0 L 35.25 0 L 32.75 20.41 L 27.8 20.41 L 26.61 14.09 C 26.48 13.44 26.37 12.79 26.27 12.12 C 26.169999999999998 11.45 26.09 10.819999999999999 26.05 10.209999999999999 L 25.96 10.209999999999999 C 25.900000000000002 10.819999999999999 25.82 11.45 25.740000000000002 12.12 C 25.660000000000004 12.79 25.55 13.45 25.430000000000003 14.09 L 24.240000000000002 20.41 L 19.44 20.41 z M 42.45 20.41 L 42.45 3.88 L 36.35 3.88 L 36.35 0 L 53.19 0 L 53.19 3.88 L 47.089999999999996 3.88 L 47.089999999999996 20.41 L 42.449999999999996 20.41 z" stroke-linecap="round" />
</g>
<g transform="matrix(15.08 0 0 15.08 975.09 693.93)"  >
<path style="stroke: none; stroke-width: 1; stroke-dasharray: none; stroke-linecap: butt; stroke-dashoffset: 0; stroke-linejoin: miter; stroke-miterlimit: 4; fill: rgb(255,47,97); fill-rule: nonzero; opacity: 1;" vector-effect="non-scaling-stroke"  transform=" translate(-64.64, -22.7)" d="M 57.69 20.41 L 71.6 20.41 L 71.6 25 L 57.69 25 z" stroke-linecap="round" />
</g>
</svg>