<?xml version="1.0" encoding="UTF-8"?>
<svg id="Calque_2" data-name="Calque 2" xmlns="http://www.w3.org/2000/svg" viewBox="0 0 47.28 47.28">
  <defs>
    <style>
      .cls-1 {
        fill: #fff;
      }
    </style>
  </defs>
  <g id="OBJECTS">
    <g>
      <path class="cls-1" d="m35.45,16.6c-2.09,0-3.79-1.7-3.79-3.79s1.7-3.79,3.79-3.79,3.79,1.7,3.79,3.79-1.7,3.79-3.79,3.79Zm0-5.27c-.82,0-1.48.67-1.48,1.48s.67,1.48,1.48,1.48,1.48-.66,1.48-1.48-.66-1.48-1.48-1.48Z"/>
      <path class="cls-1" d="m23.73,34.78c-6.15,0-11.15-5-11.15-11.14s5-11.15,11.15-11.15,11.14,5,11.14,11.15-5,11.14-11.14,11.14Zm0-19.98c-4.87,0-8.83,3.96-8.83,8.83s3.96,8.83,8.83,8.83,8.83-3.96,8.83-8.83-3.96-8.83-8.83-8.83Z"/>
      <path class="cls-1" d="m32.62,47.28H14.67c-8.09,0-14.67-6.58-14.67-14.66V14.66C0,6.58,6.58,0,14.67,0h17.95c8.08,0,14.66,6.58,14.66,14.66v17.96c0,8.09-6.58,14.66-14.66,14.66ZM14.67,2.31C7.85,2.31,2.31,7.85,2.31,14.66v17.96c0,6.81,5.54,12.35,12.36,12.35h17.95c6.81,0,12.35-5.54,12.35-12.35V14.66c0-6.81-5.54-12.35-12.35-12.35H14.67Z"/>
    </g>
  </g>
</svg>