<svg width="49" height="17" viewBox="0 0 49 17" fill="none" xmlns="http://www.w3.org/2000/svg">
<path d="M47.8655 10.9625C47.8086 11.4975 47.2913 12.103 46.0347 12.6733C44.8141 13.2274 43.0522 13.6732 40.8572 13.9782C36.475 14.5872 30.4804 14.6201 23.9184 13.9225C17.3564 13.225 11.5027 11.9326 7.34644 10.4159C5.26459 9.6562 3.63582 8.84993 2.55897 8.0517C1.45036 7.22991 1.07192 6.5292 1.12879 5.99421C1.18566 5.45922 1.70296 4.85373 2.95956 4.28338C4.18016 3.72937 5.94203 3.28354 8.13707 2.97849C12.5193 2.3695 18.5139 2.33663 25.0759 3.0342C31.6379 3.73177 37.4916 5.02416 41.6478 6.54082C43.7297 7.30052 45.3584 8.10679 46.4353 8.90503C47.5439 9.72681 47.9223 10.4275 47.8655 10.9625Z" stroke="white"/>
<path d="M34 0L31 6L34 16L37 6L34 0Z" fill="#FF2F61"/>
<path d="M25 0L22 6L25 16L28 6L25 0Z" fill="#FF2F61"/>
<path d="M16 0L13 6L16 16L19 6L16 0Z" fill="#FF2F61"/>
</svg>
