<svg width="190" height="243" viewBox="0 0 190 243" fill="none" xmlns="http://www.w3.org/2000/svg">
<g filter="url(#filter0_d_96_1281)">
<path d="M73.2604 26.8891C75.4989 31.936 78.8422 37.9864 83.6328 40.9441C84.4796 41.4342 85.3967 41.8068 86.3548 41.9741C87.3159 42.1618 88.2916 42.0533 89.2703 41.9359C95.1362 41.3256 101.067 40.3426 106.977 41.038C108.934 41.2992 110.912 41.8068 112.602 42.9071L112.523 42.8837C112.901 42.8925 113.042 42.5374 113.074 42.2029C113.144 41.0498 112.764 39.8966 112.444 38.7875C111.972 37.2881 111.401 35.818 110.803 34.3597C109.593 31.4489 108.26 28.5851 106.856 25.7624C101.834 25.9502 95.5406 25.8064 90.0936 25.9883C84.5616 26.1732 78.7367 26.1233 73.2633 26.8833L73.2604 26.8891ZM73.2604 26.8891C74.2478 26.7131 75.3905 26.5898 76.3985 26.4901C80.9518 26.1086 85.5227 25.9443 90.0877 25.8299C95.7164 25.7565 101.503 25.4983 107.059 25.6626C108.477 28.4854 109.822 31.3462 111.046 34.2599C111.653 35.7183 112.233 37.1912 112.714 38.7053C113.051 39.8497 113.443 41.0204 113.358 42.2381C113.332 42.6783 113.033 43.2035 112.523 43.1683H112.479L112.447 43.1478C110.818 42.0768 108.878 41.5662 106.944 41.3021C100.695 40.5509 94.4154 41.6542 88.1891 42.244C88.0045 42.2499 87.6236 42.2675 87.439 42.2733C87.2104 42.2733 86.9203 42.2264 86.6918 42.2176C80.2896 41.2493 75.5898 32.3439 73.2604 26.8921V26.8891Z" fill="#FF2F61"/>
<path d="M92.8916 0.48108C85.4698 -0.721959 76.8876 0.448804 71.5256 6.16177C68.3816 9.51854 66.8287 14.2691 66.3365 18.6528C66.8346 21.4198 68.7596 23.6733 70.966 25.3048C71.7102 25.8535 72.4955 26.3581 73.3129 26.7689L73.1313 26.854C74.7399 21.2438 76.8495 15.7597 79.7386 10.6805C82.5573 5.93877 86.7326 0.0585492 92.8975 0.378381C98.2742 1.32614 103.033 4.93232 105.371 9.87358C107.75 14.7474 108.157 20.4633 106.953 25.7155C108.107 20.4662 107.63 14.7796 105.236 9.94107C102.918 5.05556 98.1482 1.49339 92.8828 0.583778C89.9528 0.354908 87.2337 1.90419 85.168 3.876C79.2668 9.74154 75.7683 19.049 73.3833 26.9215L73.3393 27.0741C72.4456 26.631 71.6106 26.097 70.8165 25.5043C68.5692 23.8318 66.6148 21.5166 66.1167 18.688C66.6295 14.0989 68.2058 9.46572 71.3967 6.04147C76.8056 0.293289 85.4434 -0.801183 92.8916 0.48108Z" fill="#FF2F61"/>
<path d="M76.1904 32.7578C73.4127 35.0201 68.5752 39.4567 69.0792 43.3475C69.1524 43.9343 69.4923 44.6004 69.8087 45.0083C72.103 46.983 74.1218 49.3803 75.2557 52.2265C76.0381 54.0868 76.4453 56.088 77.3361 57.8954C78.6429 60.639 81.1452 62.5374 83.709 64.0368L83.624 64.0192C84.9074 63.8754 86.1614 63.5057 87.3393 62.9834C87.9429 62.7457 88.4938 62.4024 89.0651 62.0973C95.3384 58.1214 98.6787 50.9882 101.093 44.2102C101.374 43.3387 101.843 41.8158 102.124 40.9385L101.568 42.8193C99.2705 50.4865 95.1304 59.7352 87.4536 63.2328C86.2376 63.7757 84.9425 64.1601 83.6123 64.3068C82.7274 63.7845 81.8542 63.2416 81.028 62.6196C76.8292 59.4594 76.7032 56.8186 75.0213 52.3263C74.2742 50.463 73.1607 48.77 71.8246 47.2764C71.1566 46.5223 70.4211 45.8299 69.674 45.155C69.2755 44.6386 68.9971 44.0253 68.9004 43.3798C68.4052 39.3833 73.3277 35.0289 76.1933 32.7637L76.1904 32.7578Z" fill="#FF2F61"/>
<path d="M70.9164 29.2366C70.6702 27.6697 70.3304 26.0823 69.6037 24.6856C69.4045 24.3511 69.1818 24.0254 68.8858 23.7877C67.9629 23.2302 66.5594 24.2572 65.906 24.932C64.8189 26.0412 64.3237 27.699 64.7691 29.2043C65.191 30.736 66.3132 31.9566 67.497 32.9748C68.5401 35.0874 70.972 37.4202 72.0884 33.9284C71.101 37.5757 68.417 35.2752 67.2948 33.101C66.2283 32.2794 64.9039 30.8005 64.4966 29.2806C64.0014 27.6932 64.5611 25.9062 65.7155 24.7472C66.4246 24.0342 67.3563 23.3886 68.4024 23.3974C70.1926 23.6175 70.7669 27.7548 70.9164 29.2336V29.2366Z" fill="#FF2F61"/>
<path d="M71.5843 26.8892C71.3733 28.101 71.0891 29.3099 70.5353 30.4161C70.3976 30.6949 70.2218 30.959 70.0079 31.1996C69.92 31.2964 69.7149 31.446 69.6592 31.5399C69.6592 31.5399 69.6592 31.5106 69.6504 31.5077C69.6534 31.5018 69.6387 31.5018 69.6504 31.5047C69.6797 31.5194 69.7559 31.5282 69.8233 31.5282C70.6965 31.4783 71.6048 31.1908 72.3754 30.777C72.601 30.6391 72.7827 30.5188 72.8706 30.2635C72.9057 30.1843 73.0464 30.1256 73.1343 30.2078C73.1929 30.2665 73.1929 30.2958 73.2046 30.3222C73.3277 30.9619 73.2603 31.5722 73.231 32.2089C73.1518 33.1332 73.0552 34.0722 72.7123 34.9437C72.5893 35.2283 72.4486 35.5393 72.1351 35.7242L72.0941 35.5393C72.6889 35.5452 73.2456 35.152 73.7291 34.8234C74.233 34.4595 74.6989 34.0428 75.1443 33.6027C74.737 34.0781 74.2887 34.5182 73.8023 34.9173C73.2251 35.3897 72.5395 35.821 71.7513 35.733L72.0443 35.551C72.9467 34.8644 73.0903 31.5223 72.9292 30.4103C72.9292 30.3985 72.9145 30.3927 72.9467 30.4249C72.9673 30.4425 72.9907 30.4513 73.0229 30.4543C73.0757 30.4572 73.1167 30.422 73.1225 30.4103C73.0786 30.5306 73.0024 30.6479 72.9204 30.7242C72.3109 31.2494 71.5169 31.4548 70.7609 31.6485C70.4796 31.6925 69.4277 31.983 69.4189 31.5165C69.4512 31.3404 69.583 31.2759 69.6914 31.179C69.9727 30.9472 70.1925 30.6479 70.3683 30.3193C70.9455 29.2512 71.2883 28.0599 71.5872 26.8833L71.5843 26.8892Z" fill="#FF2F61"/>
<path d="M68.9327 29.7414C68.9327 28.82 69.3107 26.0413 67.8046 26.32C67.3592 26.411 66.9227 26.6457 66.5037 26.8893C66.8582 26.5577 67.2538 26.2437 67.7548 26.097C69.6476 25.695 69.2784 28.6586 68.9327 29.7414Z" fill="#FF2F61"/>
<path d="M66.8142 30.1169C67.3768 30.9913 67.8046 32.1005 68.9326 32.3C67.7313 32.5641 66.9431 31.1322 66.8142 30.1169Z" fill="#FF2F61"/>
<path d="M66.2283 18.6733C64.5084 20.1962 62.0969 21.6516 59.7411 20.8329L59.8671 20.651C60.4766 21.2966 61.2267 21.8599 62.1057 22.0624C63.0931 22.3206 64.1685 22.1005 65.0416 21.6017L64.8951 21.9538C64.4556 22.928 62.8031 26.945 61.4845 26.4168L61.6457 26.2231C62.053 26.766 62.8441 26.9919 63.4184 26.5694L63.6059 26.4491C63.6733 26.4109 63.7729 26.3552 63.9077 26.3963C64.022 26.4403 64.0688 26.5518 64.0864 26.6545C64.1421 27.4761 63.8257 28.2771 63.6205 29.0547C63.4506 29.6151 63.2601 30.1697 63.058 30.7184L63.0111 30.648C63.8227 30.6891 64.5845 30.0963 64.6373 29.2601C64.6226 30.1668 63.8139 30.7859 62.9378 30.7536L62.9613 30.6832C63.307 29.577 63.6704 28.4561 63.8549 27.3147C63.8725 27.1005 63.9487 26.7807 63.8315 26.6046C63.7876 26.587 63.5942 26.7337 63.5444 26.766C62.8763 27.2765 61.927 27.0213 61.4406 26.3787L61.1095 25.9767C61.2882 26.0324 61.6633 26.273 61.8566 26.2026C62.5833 25.8681 62.9701 25.0583 63.3861 24.401C63.852 23.5765 64.2593 22.7138 64.6343 21.8453L64.8336 22.0242C63.477 22.6991 61.8156 22.5289 60.6026 21.6399C60.1455 21.3024 59.7353 20.8329 59.3309 20.431L59.8232 20.6187C62.0969 21.4521 64.4761 20.0583 66.2283 18.6704V18.6733Z" fill="#FF2F61"/>
<path d="M66.9139 32.6285C67.201 35.0258 67.3358 37.4612 67.0955 39.8703C67.0047 40.6742 66.8904 41.4782 66.6326 42.2617C66.1081 43.7669 65.7477 45.3573 65.8209 46.9418C65.8795 48.1096 66.237 49.3126 67.1277 50.1019C67.4208 50.3631 67.7431 50.6653 67.9716 50.9998C69.8058 53.7551 70.1193 57.1295 71.7778 59.8554C72.44 60.9381 73.5329 61.4633 74.7401 60.9088C76.627 59.9434 76.501 57.3613 76.2666 55.545C76.7354 57.7104 76.5538 61.343 73.6003 61.3137C71.2591 61.164 70.4065 57.3407 69.6886 55.5244C69.1554 54.0309 68.6543 52.4699 67.7372 51.1729C67.6552 51.0526 67.4676 50.8267 67.368 50.7211C66.9344 50.3044 66.445 49.8848 66.1667 49.3332C65.7623 48.5996 65.5983 47.7692 65.5572 46.9535C65.4898 45.3221 65.859 43.7024 66.4216 42.1824C66.6794 41.4371 66.8084 40.639 66.9139 39.8468C67.1893 37.4524 67.1131 35.0258 66.9139 32.6256V32.6285Z" fill="#FF2F61"/>
<path d="M66.7233 41.5253C65.7564 41.4842 64.7602 41.8392 64.1097 42.5552C63.4211 43.2623 63.26 44.2717 62.8879 45.1637C62.0118 47.3292 61.1708 49.5534 59.9197 51.5369C59.8875 51.5604 59.8816 51.5927 59.7937 51.6161C59.7527 51.622 59.8318 51.622 59.8523 51.5721C59.8611 51.5633 59.8582 51.534 59.8582 51.5398C59.8611 51.5516 59.867 51.5662 59.8728 51.5809L59.9109 51.6601C64.4935 59.656 69.0322 67.7691 72.1937 76.4545C72.8559 78.2854 73.4595 80.137 73.9635 82.0207L73.8258 81.9327C75.7508 81.5953 79.0413 81.5248 80.269 79.867C80.5884 79.377 80.4477 78.7491 80.5444 78.1974C80.6089 77.6106 80.6939 77.0325 80.7642 76.4515C81.0894 73.9721 81.1773 70.8589 78.8889 69.2773C76.2197 67.3994 74.7488 64.2686 73.8434 61.217C74.7019 63.9781 76.0321 66.7421 78.2707 68.6406L78.9739 69.157C81.3268 70.7621 81.274 73.9457 80.9517 76.475C80.8843 77.0589 80.8023 77.6399 80.7408 78.218C80.647 78.8107 80.7876 79.4474 80.4448 79.9756C79.182 81.7361 75.8387 81.8153 73.8639 82.1733L73.7555 82.1909L73.7262 82.0853C70.7873 71.8096 65.7359 62.2645 60.4676 53.0158C60.2098 52.5345 59.8933 52.0768 59.6912 51.5633C59.6912 51.5633 59.6912 51.5252 59.697 51.5105C59.7234 51.4547 59.8113 51.4518 59.7761 51.4547C59.7498 51.4606 59.782 51.443 59.7937 51.4283C61.0273 49.4624 61.8946 47.2705 62.8 45.1344C63.1779 44.2453 63.3684 43.2359 64.0716 42.5288C64.7455 41.8099 65.7535 41.4695 66.7175 41.5282L66.7233 41.5253Z" fill="#FF2F61"/>
<path d="M99.045 69.4355C94.1987 73.699 87.0317 78.6843 80.5358 79.5C81.0134 79.3885 82.033 79.1978 82.4755 79.0393C85.2385 78.2383 87.8258 76.9296 90.2987 75.4742C93.3577 73.6873 96.2556 71.6216 99.0421 69.4355H99.045Z" fill="#FF2F61"/>
<path d="M75.663 65.5301C80.6089 65.6416 87.7026 65.6181 91.9395 62.8893C92.5987 62.4521 93.1877 61.8975 93.6301 61.2285C93.2434 61.9327 92.6661 62.5225 92.0215 63.0067C87.852 65.9497 80.606 66.0055 75.663 65.5301Z" fill="#FF2F61"/>
<path d="M73.8464 82.053C71.6928 82.9509 69.5509 83.8869 67.4735 84.952C66.5769 85.4684 65.5221 85.8851 64.8658 86.6979C64.8482 86.7331 64.8306 86.7712 64.8394 86.8035C64.9097 87.2202 65.0797 87.628 65.2174 88.033C66.0202 90.2248 66.9168 92.3844 67.7988 94.547C73.1608 107.484 78.7308 120.392 83.9903 133.376C84.5089 134.687 85.3176 136.653 85.7161 138C85.7571 138.056 85.8333 138.056 85.9183 138.035C86.4369 137.821 86.8266 137.337 87.2134 136.932C88.7458 135.172 90.0643 133.235 91.3653 131.295C90.7206 132.243 86.557 138.936 85.6194 138.097C85.5344 138.003 85.5169 137.889 85.4963 137.792C85.4084 137.431 85.2619 137.061 85.1301 136.697C84.8898 136.052 84.1134 134.118 83.8379 133.44C78.9301 121.598 72.3872 106.422 67.623 94.6203C66.7498 92.4519 65.8649 90.2865 65.0738 88.0858C64.9361 87.6633 64.7603 87.2495 64.6929 86.8035C64.6841 86.7331 64.7105 86.6832 64.7368 86.6304C64.8892 86.3546 65.1529 86.1873 65.3932 86.0054C66.0436 85.5623 66.7381 85.2044 67.4325 84.8523C69.5275 83.8165 71.684 82.9127 73.8523 82.0471L73.8464 82.053Z" fill="#FF2F61"/>
<path d="M97.2868 71.8977C92.584 75.7152 87.4828 79.2392 81.7838 81.3812C81.2652 81.5426 80.4682 81.833 79.9379 81.9387C77.755 82.3847 75.6805 83.2767 73.7232 84.333C72.5922 84.9228 71.4876 85.5683 70.4005 86.2432C73.3013 84.2949 76.4101 82.4316 79.8705 81.6863L80.3334 81.5719L80.7847 81.4222C81.6373 81.164 82.6394 80.7562 83.4598 80.4129C88.4058 78.1828 92.9503 75.143 97.2868 71.8948V71.8977Z" fill="#FF2F61"/>
<path d="M68.2791 89.9755C71.8742 99.0628 75.7361 109.06 79.4309 118.044C80.7201 121.14 81.9888 124.25 83.5154 127.24C80.3304 121.328 77.9365 115.025 75.3962 108.816C72.9349 102.569 70.5323 96.2988 68.2791 89.9755Z" fill="#FF2F61"/>
<path d="M83.8436 101.469C84.3447 102.487 84.8574 103.496 85.4259 104.476C85.9972 105.401 86.5217 106.486 87.4242 107.117C88.3677 107.434 91.913 105.16 92.6397 104.409L92.6924 104.341L92.7188 104.309C92.7188 104.309 92.7159 104.303 92.7188 104.3C92.6192 103.67 92.1885 103.056 91.8779 102.478C90.9491 100.952 89.9675 99.4178 88.8218 98.0534L88.7896 98.0241C88.7779 98.0123 88.7632 98.0065 88.7808 98.0123C88.8072 98.0065 88.7749 98.0123 88.7456 98.0241C88.69 98.0417 88.523 98.118 88.4644 98.1444C87.8754 98.4261 83.1932 100.841 83.8466 101.469H83.8436ZM83.8436 101.469C83.1434 100.8 87.934 98.1473 88.5669 97.8656C88.6577 97.8363 88.7076 97.7746 88.8394 97.804C88.9713 97.8715 88.9859 97.9155 89.0504 97.9712C90.2165 99.3269 91.1805 100.82 92.1181 102.334C92.4346 102.892 92.795 103.449 92.9825 104.083C93.0001 104.16 93.0206 104.239 93.003 104.353C92.9239 104.585 92.8009 104.644 92.6954 104.758C91.5907 105.674 90.3396 106.384 89.0416 106.985C88.5698 107.179 88.0835 107.411 87.5619 107.396C86.2258 107.038 84.4472 102.792 83.8466 101.469H83.8436Z" fill="#FF2F61"/>
<path d="M91.9922 105.128C93.548 108.42 95.0189 111.771 96.8825 114.902C98.16 116.457 99.3056 118.1 100.284 119.866L100.308 119.907L100.281 119.945C99.6631 120.873 99.0038 121.8 98.0574 122.428C97.8259 122.578 97.5329 122.624 97.2956 122.754C97.0612 122.883 96.8473 123.05 96.6393 123.226C96.0122 123.76 95.4584 124.388 94.849 124.948C94.6497 125.11 94.4564 125.327 94.1839 125.356C94.0813 125.356 93.9846 125.274 93.9583 125.174C93.9143 125.077 93.8821 124.972 93.8469 124.875C93.0265 122.387 92.1768 119.893 91.0926 117.507C90.4187 115.999 89.654 114.526 88.7486 113.147C87.8344 111.8 86.4309 110.794 84.9249 110.213L84.8838 110.198L84.8604 110.166L77.9425 100.219L77.8517 100.087L77.9923 100.01C84.2509 96.721 90.533 93.376 97.2106 91.0051C98.7518 90.4769 100.378 90.1982 101.896 89.6025C102.913 89.2269 103.903 88.7809 104.867 88.2792C105.35 88.0298 105.825 87.7686 106.303 87.5045C107.029 87.1348 107.75 86.636 108.597 86.592C108.887 86.5832 109.189 86.7094 109.385 86.9148C109.789 87.3021 110.112 87.7422 110.431 88.1882C112.283 90.8848 113.818 93.7985 115.075 96.8149C115.418 97.8096 115.975 98.9041 115.802 99.9751C115.541 100.45 115.043 100.77 114.606 101.075C114.143 101.36 113.639 101.589 113.109 101.712C113.639 101.583 114.138 101.348 114.598 101.061C115.028 100.756 115.515 100.43 115.77 99.9633C115.925 98.8953 115.362 97.8272 115.011 96.8413C113.727 93.8454 112.151 90.9611 110.302 88.2792C109.986 87.842 109.658 87.4018 109.274 87.0351C109.083 86.8443 108.858 86.7534 108.594 86.7563C107.791 86.8062 107.088 87.2933 106.385 87.6542C105.91 87.9183 105.432 88.1824 104.949 88.4347C103.982 88.9423 102.986 89.3971 101.963 89.7786C99.9268 90.5473 97.7556 90.9083 95.7456 91.7533C89.6774 94.1477 83.8759 97.1846 78.13 100.257L78.1799 100.048C78.13 100.04 85.2765 110.218 85.0069 109.966C86.5774 110.579 87.9985 111.609 88.9449 113.009C89.8532 114.409 90.618 115.89 91.2919 117.413C92.3116 119.684 93.132 122.049 93.8967 124.417L94.0286 124.81C94.0696 124.931 94.1077 125.048 94.1634 125.16C94.1634 125.195 94.3216 125.139 94.4183 125.063C95.4028 124.306 96.1324 123.235 97.2194 122.601C97.4655 122.46 97.738 122.434 97.9783 122.281C98.4325 121.997 98.8222 121.6 99.1767 121.184C99.5312 120.767 99.8594 120.321 100.155 119.86V119.94C99.1884 118.179 98.0105 116.477 96.7945 114.963C94.9603 111.809 93.5246 108.437 92.001 105.128H91.9922Z" fill="#FF2F61"/>
<path d="M87.6177 107.287C88.482 109.588 89.1647 111.973 89.6453 114.385C88.7809 112.085 88.0982 109.699 87.6177 107.287Z" fill="#FF2F61"/>
<path d="M89.1851 106.78C91.8719 112.102 94.4006 117.546 96.73 123.038C94.0402 117.713 91.5145 112.27 89.1851 106.78Z" fill="#FF2F61"/>
<path d="M102.494 92.8656C103.168 94.277 103.859 95.6825 104.703 97C104.981 97.4078 105.28 97.8714 105.684 98.1443C105.752 98.1913 105.822 98.2118 105.898 98.2206C106.3 98.1825 106.681 98.0064 107.05 97.8421C108.196 97.2758 109.327 96.595 110.288 95.747C110.349 95.6972 110.458 95.5651 110.472 95.524C110.378 94.9372 110 94.3679 109.722 93.8281C108.875 92.3873 107.996 90.9173 106.936 89.6292L106.921 89.6174C106.921 89.6174 106.93 89.6233 106.936 89.6233C106.956 89.6174 106.941 89.6233 106.941 89.6233C106.921 89.6292 106.892 89.638 106.862 89.6526C106.297 89.8991 101.89 92.2758 102.491 92.8686L102.494 92.8656ZM102.494 92.8656C101.852 92.2436 106.276 89.6438 106.889 89.415C107.079 89.3563 107.243 89.6585 107.352 89.7641C108.615 91.4484 109.816 93.1825 110.674 95.1103C110.712 95.2482 110.771 95.3627 110.759 95.5563C110.712 95.7705 110.604 95.8175 110.487 95.9524C109.488 96.821 108.345 97.4959 107.158 98.071C106.76 98.247 106.347 98.4289 105.901 98.4524C104.679 98.2705 103.006 94.0364 102.497 92.8656H102.494Z" fill="#FF2F61"/>
<path d="M105.893 98.3381C106.323 99.1509 106.719 99.9813 107.094 100.82C107.451 101.715 107.879 102.569 107.958 103.555C106.739 103.96 105.526 104.409 104.384 104.987C103.83 105.278 103.297 105.58 102.848 106.011C102.335 106.431 101.785 106.733 101.231 107.044C99.0069 108.25 96.6951 109.262 94.3569 110.222C96.367 109.23 99.1769 107.892 101.102 106.812C101.644 106.504 102.198 106.184 102.658 105.8C103.115 105.345 103.695 105.016 104.258 104.735C105.403 104.174 106.59 103.734 107.8 103.362L107.718 103.473C107.472 101.686 106.567 100.005 105.893 98.3381Z" fill="#FF2F61"/>
<path d="M110.285 95.9465C113.065 101.275 115.849 106.604 118.433 112.032C118.621 112.32 118.509 112.763 118.386 113.047C118.228 113.452 118.023 113.828 117.806 114.198C117.337 114.972 115.242 118.135 114.234 117.455C113.883 117.094 113.681 116.63 113.443 116.213C112.854 115.09 112.318 113.942 111.8 112.786C110.414 109.708 109.098 106.604 107.835 103.476C109.473 107.111 111.348 111.428 113.098 114.969C113.473 115.703 113.839 116.489 114.314 117.149C114.492 117.466 114.92 117.188 115.219 116.95C116.168 116.149 116.907 115.101 117.551 114.045C117.838 113.534 118.199 112.968 118.255 112.39C117.909 111.436 117.378 110.509 116.951 109.579C114.964 105.536 112.242 100.005 110.282 95.9495L110.285 95.9465Z" fill="#FF2F61"/>
<path d="M107.835 97.5868C109.189 100.58 110.595 103.854 111.937 106.838C113.253 109.702 114.422 112.666 116.083 115.351C116.201 115.524 116.332 115.691 116.502 115.817C116.151 115.577 115.916 115.207 115.676 114.864C114.088 112.367 112.904 109.641 111.671 106.959C110.314 103.866 109.007 100.756 107.835 97.5868Z" fill="#FF2F61"/>
<path d="M71.5023 88.0682C71.5228 90.04 69.0879 91.0934 67.661 89.7143C66.738 88.8692 66.7351 87.2701 67.661 86.425C69.085 85.043 71.5228 86.0993 71.5023 88.0711V88.0682ZM71.5023 88.0682C71.5169 86.1639 69.126 85.2161 67.8397 86.6011C67.0632 87.3904 67.0632 88.746 67.8397 89.5353C69.126 90.9203 71.5169 89.9725 71.5023 88.0682Z" fill="#FF2F61"/>
<path d="M87.6177 128.267C87.6382 130.239 85.2033 131.292 83.7763 129.913C82.8534 129.068 82.8504 127.469 83.7763 126.624C85.2003 125.242 87.6382 126.298 87.6177 128.27V128.267ZM87.6177 128.267C87.6323 126.363 85.2414 125.415 83.9551 126.8C83.1786 127.589 83.1786 128.945 83.9551 129.734C85.2414 131.119 87.6323 130.171 87.6177 128.267Z" fill="#FF2F61"/>
<path d="M80.937 104.28C80.9575 106.44 81.063 108.611 81.4351 110.741C81.5846 111.53 81.7604 112.334 82.1325 113.05C82.8972 114.151 83.8729 115.113 84.6465 116.222C85.9357 117.962 87.0667 119.84 87.8315 121.877C88.7954 124.124 88.6548 126.692 89.6979 128.904C90.0495 129.635 90.5418 130.254 91.1278 130.817C91.5351 131.184 91.8603 131.727 91.8662 132.287C91.916 132.83 91.9365 133.37 91.9658 133.913C92.0742 136.072 92.1914 138.235 92.5664 140.356C92.7598 141.401 93.003 142.469 93.5099 143.405C93.7619 143.857 94.1164 144.288 94.597 144.415C96.1675 144.723 97.7849 144.244 99.2675 143.716C100.278 143.344 101.266 142.892 102.212 142.378C104.085 141.809 105.945 141.202 107.791 140.556C109.611 139.899 111.48 139.262 113.168 138.314C113.666 138.044 113.833 137.78 114.19 137.34C115.978 135.635 118.345 134.611 120.721 134.03C121.633 133.831 122.846 133.722 123.637 133.884C125.998 133.467 127.912 131.334 128.384 129.016C128.457 128.625 128.466 128.223 128.389 127.839C128.307 127.443 128.05 127.114 127.894 126.75C127.203 125.269 126.573 123.766 125.928 122.267C124.056 117.91 122.055 113.094 120.153 108.781C119.163 106.545 118.175 104.306 117.053 102.135C116.769 101.595 116.482 101.052 116.127 100.554C116.004 100.395 115.89 100.207 115.693 100.137C115.89 100.204 116.007 100.392 116.13 100.548C116.487 101.044 116.78 101.583 117.071 102.12C118.216 104.283 119.227 106.513 120.238 108.737C122.192 113.021 124.211 117.845 126.089 122.194C126.737 123.687 127.373 125.192 128.067 126.662C128.24 127.047 128.495 127.381 128.58 127.792C128.665 128.209 128.656 128.637 128.58 129.048C128.093 131.466 126.136 133.661 123.669 134.109C122.708 133.972 121.721 134.054 120.765 134.265C118.454 134.837 116.115 135.858 114.381 137.519C114.208 137.686 114.123 137.88 113.915 138.094C113.724 138.282 113.511 138.411 113.3 138.546C109.83 140.392 106.024 141.454 102.297 142.636C100.563 143.584 95.5551 145.829 93.7883 144.206C91.9365 142.052 91.9511 136.744 91.7519 133.925C91.6698 133.15 91.7929 132.284 91.4677 131.568C91.3446 131.345 91.1717 131.149 90.9813 130.958C90.3953 130.395 89.8708 129.732 89.5221 128.989C88.4731 126.756 88.6314 124.203 87.6703 121.938C86.9231 119.914 85.7921 118.053 84.5351 116.305C83.7733 115.184 82.8064 114.218 82.0475 113.097C81.6754 112.367 81.5084 111.557 81.3648 110.759C81.0132 108.62 80.9312 106.448 80.9312 104.286L80.937 104.28Z" fill="#FF2F61"/>
<path d="M84.9629 110.087C86.5774 112.751 88.1449 115.445 89.6481 118.176C90.4245 119.649 91.2918 121.081 91.828 122.669C91.9423 124.121 92.2353 125.562 92.5693 126.982C92.9297 128.478 93.3282 130.001 94.0139 131.38C94.3039 131.988 94.9603 132.713 95.3646 133.253C96.7476 135.039 98.1804 137.099 99.915 138.546C100.445 139.13 100.879 139.787 101.248 140.477C101.588 141.16 101.99 141.909 101.902 142.692C101.957 141.911 101.535 141.184 101.181 140.515C100.794 139.843 100.346 139.2 99.8125 138.646C97.9988 137.17 96.607 135.239 95.1683 133.408C95.0247 133.232 94.3918 132.419 94.2629 132.267C93.6095 131.392 93.2491 130.333 92.9122 129.312C92.2734 127.205 91.7606 125.042 91.5878 122.842C91.5761 122.716 91.535 122.584 91.4911 122.463C91.0193 121.199 90.0729 119.503 89.4547 118.282C88.186 115.867 86.299 112.504 84.9658 110.084L84.9629 110.087Z" fill="#FF2F61"/>
<path d="M96.944 85.1339C98.5145 77.411 99.2617 69.512 99.1503 61.6307C99.1444 60.4804 99.0741 58.8519 99.0067 57.6929C98.995 57.0327 98.91 56.3872 98.787 55.7417C98.6522 55.102 98.5028 54.4506 98.1629 53.8843C98.5291 54.4359 98.7079 55.0873 98.8632 55.724C99.0097 56.3666 99.1181 57.0239 99.1503 57.6812C99.2411 58.8549 99.3466 60.4687 99.3759 61.6248C99.5927 69.515 98.8339 77.4668 96.944 85.1339Z" fill="#FF2F61"/>
<path d="M91.3622 74.864C91.8163 70.8352 92.332 66.8065 93.1818 62.8394C93.4748 61.61 93.7385 60.3424 94.3333 59.2156C94.7464 58.5701 95.35 58.086 95.8217 57.4815C96.6978 56.3694 98.4676 54.3976 98.1218 52.9364C98.0544 52.7134 97.8669 52.5285 97.6589 52.464L97.7028 52.3231C102.956 54.3125 108.219 56.2843 113.338 58.6024C114.129 58.9868 114.949 59.3418 115.67 59.8612C116.066 60.1986 116.496 60.5008 116.959 60.7385C120.077 62.3377 123.206 64.0924 125.615 66.695C126.69 67.8658 127.651 69.1422 128.413 70.5418C129.327 72.2495 130.065 74.0453 130.804 75.8352C133.4 82.3609 135.753 89.0363 137.183 95.9259C137.449 97.2874 137.666 98.7545 137.622 100.148C138.847 102.487 140.086 105.764 141.126 108.499C142.038 111.002 142.972 113.508 143.605 116.102C143.881 117.983 144.358 119.817 144.763 121.683C145.111 123.17 145.243 124.702 145.226 126.228C145.293 127.742 145.46 129.253 145.568 130.773C145.606 131.818 145.794 132.918 145.486 133.942C145.293 134.288 145.076 134.57 144.93 134.934C144.897 135.01 144.862 135.116 144.856 135.166L144.733 135.06C145.179 134.981 145.647 135.089 146.031 135.306C147.159 135.975 147.86 137.14 148.545 138.211C149.445 139.658 150.16 141.21 151.094 142.63C152.02 144.053 153.066 145.394 154.139 146.712C154.898 147.73 155.903 148.622 156.38 149.819C156.779 150.608 157.327 151.55 156.867 152.442L156.834 152.516C156.802 152.615 156.834 152.721 156.881 152.836C157.35 153.774 158.121 154.537 158.803 155.335C161.089 157.856 163.489 160.274 165.648 162.909C166.718 164.232 167.775 165.588 168.52 167.128C168.619 167.92 168.692 168.724 168.921 169.493C169.006 169.725 169.088 170.033 169.366 170.048C172.504 170.705 173.307 174.291 173.023 177.066L172.88 178.296L173.014 177.066C173.275 174.311 172.481 170.758 169.358 170.112C169.223 170.115 169.079 170.01 169.018 169.889C168.818 169.537 168.751 169.126 168.669 168.736C168.587 168.252 168.484 167.609 168.446 167.166C167.699 165.641 166.636 164.294 165.56 162.985C163.383 160.371 160.975 157.965 158.686 155.444C158.276 154.922 156.342 153.041 156.717 152.378C157.142 151.509 156.609 150.676 156.225 149.892C155.765 148.736 154.745 147.821 154.001 146.826C152.923 145.509 151.871 144.165 150.936 142.736C149.996 141.313 149.278 139.761 148.375 138.32C147.567 137.12 146.456 135.069 144.771 135.271L144.634 135.295C144.654 134.637 145.217 134.206 145.363 133.604C145.595 131.154 145.061 128.696 144.997 126.237C145.141 123.173 144.086 120.277 143.547 117.273C143.353 115.77 142.867 114.324 142.398 112.886C140.927 108.584 139.333 104.294 137.35 100.201L137.335 100.169V100.122V99.0861C137.215 97.3813 136.863 95.5797 136.471 93.9189C134.994 87.7775 132.925 81.7829 130.587 75.9203C129.274 72.6721 127.924 69.3857 125.462 66.8417C123.068 64.2479 119.977 62.5108 116.868 60.9087C116.561 60.7385 116.253 60.5595 115.963 60.3483L115.556 60.0108C114.853 59.5061 114.044 59.1511 113.264 58.7726C108.157 56.4487 102.898 54.4622 97.656 52.464L97.6999 52.3231C99.6015 53.2093 96.7271 56.6012 95.9126 57.5578C95.4438 58.1476 94.8372 58.6435 94.4241 59.2685C93.8293 60.3805 93.5597 61.6393 93.2609 62.86C92.3848 66.8183 91.8456 70.844 91.3651 74.8669L91.3622 74.864Z" fill="#FF2F61"/>
<path d="M161.748 190.913C161.64 191.022 161.476 191.043 161.332 191.045C160.881 191.034 160.453 190.864 160.034 190.708C158.367 190.045 156.793 189.153 155.088 188.592C154.523 188.416 153.934 188.258 153.342 188.302C152.747 188.372 152.14 188.352 151.543 188.296C150.347 188.179 149.169 187.932 148.021 187.577C146.79 187.146 144.78 186.509 144.396 185.098C144.241 184.217 143.863 183.399 143.488 182.592C142.925 181.448 140.567 176.985 139.105 177.222C138.671 170.195 138.114 163.176 137.886 156.14C137.64 151.492 137.168 146.824 136.45 142.223C136.333 141.51 136.192 140.791 136.005 140.098C135.873 139.696 135.665 139.265 135.58 138.848C134.862 135.43 135.278 131.812 134.358 128.441C133.077 124.559 131.864 120.609 131.325 116.548C131.322 114.782 131.296 113.077 130.968 111.325C130.78 110.178 130.531 109.036 130.212 107.921C128.501 103.247 128.304 98.1269 126.291 93.5964C125.975 92.81 125.957 92.6516 125.738 91.9239C124.516 87.1147 123.76 82.1822 122.907 77.3026C122.62 73.8049 122.863 70.2927 123.068 66.798C122.893 70.2897 122.679 73.8079 122.992 77.2938C123.892 82.1587 124.674 87.0853 125.899 91.8828C126.06 92.4227 126.23 93.036 126.45 93.5318C128.489 98.0975 128.697 103.215 130.417 107.866C130.742 108.992 130.997 110.14 131.188 111.293C131.378 112.449 131.519 113.614 131.554 114.79C131.516 115.958 131.563 117.106 131.82 118.253C132.524 121.674 133.476 125.054 134.616 128.355C134.979 129.5 135.079 130.673 135.19 131.838C135.345 133.584 135.416 135.333 135.594 137.076C135.688 137.933 135.782 138.801 136.119 139.594C136.218 139.834 136.324 140.195 136.383 140.456C137.007 143.32 137.273 146.243 137.59 149.145C138.117 153.789 138.144 158.47 138.428 163.135C138.689 167.797 138.979 172.46 139.272 177.122L139.166 177.04C140.737 176.949 142.978 181.213 143.626 182.527C144.004 183.343 144.385 184.182 144.54 185.074C144.754 185.94 145.65 186.421 146.395 186.811C146.928 187.075 147.488 187.284 148.053 187.469C149.19 187.83 150.362 188.085 151.549 188.211C152.143 188.273 152.738 188.296 153.333 188.232C153.942 188.19 154.534 188.358 155.103 188.54C156.24 188.924 157.318 189.455 158.399 189.963C159.214 190.338 160.016 190.749 160.887 190.978C161.168 191.043 161.508 191.113 161.745 190.913H161.748Z" fill="#FF2F61"/>
<path d="M59.7822 51.5369C55.9233 53.0304 52.079 54.5709 48.2817 56.214C46.4211 57.0679 44.4521 57.8161 42.7936 59.0221C38.3224 62.2263 33.1244 64.4505 29.0956 68.2444C28.6004 68.7344 28.2312 69.2509 27.9617 69.9023C27.3551 71.164 26.5962 72.3172 25.8842 73.5026C23.546 77.3112 21.4188 81.3135 20.3025 85.665C19.4645 89.3504 18.6939 93.1532 16.7102 96.4307C18.6382 93.1209 19.3209 89.3123 20.1325 85.621C21.2049 81.2402 23.3175 77.188 25.6557 73.3647C26.3618 72.1792 27.1207 71.0173 27.7067 69.7849C27.9617 69.1511 28.3924 68.529 28.8905 68.0449C31.3928 65.633 34.4664 63.9282 37.3935 62.1177C39.1457 61.0379 40.9917 60.0608 42.6383 58.8343C44.3407 57.6166 46.3156 56.8919 48.2084 56.0439C52.0204 54.4242 55.8969 52.9658 59.7822 51.5369Z" fill="#FF2F61"/>
<path d="M139.187 177.122C139.638 181.521 139.902 186.503 140.579 190.837C140.963 194.067 141.692 201.84 140.306 204.595C140.101 205 139.618 205.176 139.196 205.282C138.786 205.394 138.372 205.476 137.959 205.543C135.958 205.872 129.219 206.388 128.548 203.973C129.266 206.312 135.964 205.669 137.921 205.32C138.525 205.206 139.137 205.08 139.703 204.845C139.864 204.774 139.987 204.631 140.089 204.466C140.476 203.762 140.579 202.902 140.678 202.101C140.977 198.786 140.755 195.426 140.464 192.116C139.755 187.148 139.492 182.134 139.187 177.125V177.122Z" fill="#FF2F61"/>
<path d="M139.773 204.948C140.007 207.905 140.291 210.866 140.417 213.83C140.473 215.323 141.373 220.156 139.615 220.631C136.734 221.359 133.76 221.605 130.86 222.239C129.562 222.518 128.249 222.785 127.045 223.334C126.139 223.824 125.418 224.586 124.668 225.285C124.226 225.672 123.731 226.28 123.071 226.139C122.462 225.892 122.295 225.182 122.017 224.654C121.067 222.468 120.259 220.235 119.368 218.037C118.925 216.937 118.474 215.839 117.964 214.774C117.475 213.677 116.669 212.773 116.189 211.696C113.092 205.273 110.443 198.642 108.093 191.911C107.633 190.496 107.138 189.079 106.889 187.606C106.813 186.723 106.774 185.837 106.584 184.96C105.892 181.477 104.864 178.049 103.625 174.722C103.232 173.786 102.913 172.768 102.277 171.967C101.316 171.028 100.624 169.845 99.8595 168.76C97.8905 165.79 96.0123 162.759 94.3187 159.622C93.9906 158.959 93.5921 158.311 93.4251 157.58C93.4133 157.131 93.3606 156.697 93.2463 156.263C93.0207 155.412 92.716 154.54 92.13 153.868C91.9337 153.657 91.6641 153.46 91.3594 153.496C91.9923 153.46 92.3644 154.115 92.6427 154.59C93.1203 155.509 93.4397 156.539 93.4719 157.574C93.6448 158.29 94.0492 158.933 94.3803 159.587C96.1002 162.703 98.0165 165.708 99.9884 168.669C100.756 169.754 101.445 170.916 102.394 171.841C103.062 172.659 103.384 173.692 103.792 174.652C105.049 177.991 106.089 181.412 106.798 184.913C106.988 185.784 107.035 186.679 107.111 187.568C107.363 189.021 107.859 190.423 108.322 191.826C110.686 198.53 113.376 205.147 116.426 211.57C116.918 212.673 117.715 213.571 118.193 214.657C118.706 215.734 119.151 216.837 119.593 217.94C120.478 220.144 121.278 222.386 122.216 224.56C122.471 225.041 122.614 225.69 123.133 225.93C123.666 226.027 124.138 225.461 124.525 225.129C125.281 224.425 126.031 223.648 126.957 223.152C128.184 222.594 129.518 222.33 130.821 222.054C133.713 221.435 136.693 221.194 139.562 220.484C141.191 220.059 140.356 215.182 140.327 213.832C140.23 210.863 139.975 207.905 139.77 204.945L139.773 204.948Z" fill="#FF2F61"/>
<path d="M129.978 205.224C131.252 207.797 132.409 210.423 133.529 213.067C134.346 215.059 135.152 217.057 135.82 219.108C136.028 219.786 136.251 220.493 136.333 221.201L136.21 220.678C134.434 215.523 131.955 210.312 129.978 205.224Z" fill="#FF2F61"/>
<path d="M98.0312 144.253C102.605 150.479 106.593 157.19 109.561 164.341C112.635 172.571 116.33 185.417 119.043 193.792L121.316 201.183L118.905 193.836C116.092 185.497 112.336 172.68 109.315 164.441C106.364 157.301 102.473 150.564 98.0342 144.253H98.0312Z" fill="#FF2F61"/>
<path d="M79.0561 121.718C79.2055 136.835 79.5337 155.148 79.311 170.104C79.2817 171.16 79.2788 172.237 79.0795 173.281C78.9623 174.757 78.9506 176.245 78.9242 177.724C78.7953 184.437 78.9946 191.421 78.391 198.096C78.1771 199.754 77.7727 201.468 77.5354 203.123C77.1193 205.634 76.756 208.161 76.2344 210.658C76.0528 211.491 75.8652 212.322 75.5517 213.131C75.4052 213.545 75.1327 213.929 74.7841 214.199C73.1461 215.731 70.7201 215.784 68.6631 215.238C67.8339 215.024 67.0252 214.751 66.2458 214.381C63.2015 212.82 60.4883 210.749 57.8395 208.63C51.657 203.507 45.6914 197.815 41.6392 190.814C39.0197 185.934 37.7891 180.426 37.1356 174.963C36.7372 171.591 36.5526 168.191 36.6346 164.796C36.576 168.191 36.784 171.588 37.206 174.954C37.8975 180.403 39.1662 185.872 41.7798 190.734C45.8379 197.703 51.8036 203.366 57.9772 208.457C60.6172 210.552 63.3392 212.633 66.3484 214.158C68.9005 215.306 72.3287 216.077 74.6053 213.997C74.9423 213.721 75.1562 213.431 75.2997 213.026C75.5986 212.251 75.7861 211.418 75.9649 210.593C76.4806 208.102 76.8351 205.582 77.2482 203.07C77.4914 201.421 77.8987 199.713 78.1155 198.058C78.7309 191.406 78.5521 184.408 78.6957 177.712C78.725 176.227 78.7426 174.731 78.8627 173.249C79.0619 172.222 79.0707 171.134 79.1 170.086C79.3491 155.18 79.0854 136.744 79.059 121.703L79.0561 121.718Z" fill="#FF2F61"/>
<path d="M40.1508 68.2621C40.895 69.5003 41.5894 70.7679 42.2311 72.0678C42.9871 73.6904 43.8661 75.3982 43.7342 77.2379C43.7254 77.8776 43.6844 79.8142 43.6698 80.4891C43.4295 89.8258 43.2097 99.3386 42.697 108.664C42.278 112.255 41.9879 115.853 41.6949 119.459C41.5396 121.612 41.3257 123.781 41.2876 125.938C41.3345 126.662 41.3052 127.393 41.2671 128.112C41.1939 129.555 41.0591 130.999 41.0737 132.44C41.1616 133.883 41.9147 135.216 42.7849 136.339C41.8912 135.224 41.1177 133.901 41.0005 132.446C40.9624 130.993 41.0737 129.553 41.1206 128.109C41.1909 126.662 41.0649 125.213 41.1909 123.775C41.4839 118.725 41.8619 113.675 42.4186 108.649C42.8992 99.3269 43.1511 89.82 43.4793 80.4891C43.4969 79.8875 43.5584 77.8512 43.5731 77.2379C43.7196 75.4187 42.8845 73.7256 42.1608 72.103C41.5425 70.7973 40.8686 69.5179 40.1449 68.268L40.1508 68.2621Z" fill="#FF2F61"/>
<path d="M105.784 168.173C105.81 169.878 103.674 170.811 102.444 169.611C101.632 168.874 101.632 167.472 102.444 166.735C103.674 165.535 105.813 166.468 105.784 168.173ZM105.784 168.173C105.807 166.533 103.712 165.711 102.622 166.914C101.957 167.595 101.957 168.754 102.622 169.432C103.715 170.635 105.807 169.81 105.784 168.173Z" fill="#FF2F61"/>
<path d="M118.969 207.932C118.911 209.962 115.96 209.977 115.893 207.932C115.96 205.884 118.911 205.901 118.969 207.932ZM118.969 207.932C118.908 206.08 116.239 206.095 116.186 207.932C116.239 209.769 118.908 209.783 118.969 207.932Z" fill="#FF2F61"/>
<path d="M124.243 219.375C124.185 221.406 121.234 221.42 121.167 219.375C121.234 217.327 124.185 217.345 124.243 219.375ZM124.243 219.375C124.182 217.524 121.513 217.538 121.46 219.375C121.513 221.212 124.182 221.227 124.243 219.375Z" fill="#FF2F61"/>
<path d="M75.0183 198.836C74.9597 200.866 72.0092 200.881 71.9418 198.836C72.0092 196.788 74.9597 196.805 75.0183 198.836ZM75.0183 198.836C74.9568 196.984 72.2875 196.999 72.2348 198.836C72.2875 200.672 74.9568 200.687 75.0183 198.836Z" fill="#FF2F61"/>
<path d="M73.234 212.662C71.9243 214.214 69.6095 212.383 70.8284 210.743C72.1528 209.185 74.4529 211.039 73.234 212.662ZM73.234 212.662C74.3386 211.174 72.2407 209.522 71.0569 210.925C69.9552 212.395 72.0327 214.073 73.234 212.662Z" fill="#FF2F61"/>
<path d="M6.74785 131.935C5.48206 134.949 4.45947 138.132 4.18698 141.401C3.98187 144.687 4.62356 147.941 5.07479 151.187C5.20957 152.19 5.37951 153.229 5.20664 154.25C5.34435 154.819 5.77507 155.303 6.12082 155.776C7.14048 157.052 8.28321 158.238 9.41421 159.426C10.5481 160.614 11.7085 161.776 12.8043 163.009C13.0739 163.328 13.3522 163.619 13.569 164.021C13.613 164.094 13.6364 164.238 13.6013 164.344C13.4665 164.687 13.1764 164.922 12.9186 165.162C11.6733 166.242 10.2844 167.131 9.06553 168.226C8.76667 168.499 8.47659 168.783 8.25098 169.103C8.00485 169.429 8.00485 169.825 7.95504 170.212C7.8144 171.838 7.79975 173.487 7.85542 175.121C7.89937 175.711 7.873 176.354 8.07517 176.902C8.65825 177.97 9.83614 178.657 10.302 179.834C10.4456 180.285 10.6331 181.183 10.7474 181.641C11.1898 183.305 11.4858 185.068 12.2476 186.612C12.3062 186.7 12.3384 186.72 12.4527 186.788C13.2643 187.445 13.8679 188.34 14.2781 189.297C14.3191 189.393 14.3426 189.499 14.3719 189.602L14.3953 189.766C14.407 189.813 14.407 189.845 14.4305 189.892C14.8641 190.805 15.5791 191.573 16.2618 192.313C18.433 194.558 21.6824 196.852 24.9143 195.608C21.6795 196.905 18.3743 194.637 16.1592 192.413C15.582 191.823 15.0458 191.195 14.5828 190.502C14.4451 190.282 14.281 190.048 14.2342 189.778C14.0525 188.842 13.405 188.041 12.7984 187.334C12.5465 187.025 12.274 186.943 12.1011 186.714C11.3012 185.142 11.0082 183.378 10.5481 181.691C10.4339 181.263 10.2346 180.306 10.1028 179.91C9.63104 178.76 8.45901 178.099 7.86421 176.999C7.63566 176.398 7.66789 175.755 7.61222 175.13C7.54776 173.481 7.55362 171.835 7.6884 170.183C7.73235 169.866 7.73235 169.537 7.86421 169.235C8.09568 168.748 8.50296 168.37 8.87801 168.014C10.0969 166.905 11.4916 166.01 12.7369 164.948C12.9596 164.737 13.2174 164.534 13.3405 164.256C13.3464 164.206 13.3551 164.197 13.3229 164.132C13.15 163.81 12.8658 163.487 12.6051 163.182C11.5239 161.955 10.3665 160.785 9.23841 159.59C8.11033 158.393 6.9764 157.205 5.95087 155.908C5.58169 155.4 5.14511 154.913 5.00153 154.276C5.16269 153.223 5.0279 152.266 4.88433 151.213C4.45361 147.965 3.81779 144.681 4.04926 141.389C4.36864 138.106 5.43811 134.94 6.75078 131.935H6.74785Z" fill="#FF2F61"/>
<path d="M42.0756 191.436C42.1723 192.066 42.9048 195.276 42.0082 195.326C40.2297 196.166 38.6328 197.366 37.0359 198.51C34.9058 200.171 30.9883 203.137 30.5458 205.878C28.2604 206.039 25.931 199.117 25.3098 197.225C24.8351 195.904 24.6711 194.555 24.7619 193.155C24.8322 190.931 25.8138 188.953 28.1373 188.454C28.7907 188.296 29.4207 188.052 30.0096 187.73C31.2051 187.069 32.1398 186.063 33.1389 185.147C33.5198 184.798 33.9359 184.481 34.4106 184.27C34.4897 184.25 34.7065 184.176 34.7856 184.159C34.8765 184.144 35.0845 184.135 35.1753 184.123C35.3423 184.12 35.7701 184.132 35.9401 184.132C36.5964 184.138 38.3281 184.159 39.0049 184.164C38.3164 184.17 36.6023 184.191 35.9401 184.197C35.65 184.203 35.2105 184.191 34.9263 184.232C34.7856 184.235 34.5835 184.32 34.4457 184.361C33.9887 184.575 33.5902 184.895 33.2239 185.244C32.2394 186.186 31.2959 187.207 30.0975 187.891C29.4969 188.231 28.8493 188.49 28.1813 188.66C26.8686 188.962 25.7669 189.892 25.3655 191.195C24.9289 192.46 24.9846 193.856 25.0578 195.185C25.3039 196.5 25.7815 197.803 26.2386 199.065C26.8657 200.62 28.6442 205.464 30.4169 205.611L30.2909 205.725C30.8799 202.861 34.6684 200.068 36.9187 198.357C38.539 197.225 40.1594 196.033 41.976 195.238C42.7818 195.215 42.143 192.019 42.0668 191.433L42.0756 191.436Z" fill="#FF2F61"/>
<path d="M133.154 221.723C133.485 221.767 133.482 222.216 133.535 222.474C133.711 223.979 133.535 225.511 133.725 227.013C133.974 229.299 135.762 231.156 135.741 233.492C135.647 235.402 133.377 234.296 132.351 233.856C131.803 233.621 131.182 233.612 130.59 233.565C129.386 233.495 128.173 233.498 126.963 233.501C120.303 233.507 113.64 234.07 106.98 233.835C103.962 233.492 101.017 232.717 98.0693 232.019C88.6755 229.645 79.355 226.919 70.2542 223.577C66.5828 222.166 62.8441 220.778 59.5067 218.662C53.0342 214.061 48.1586 206.409 44.4608 199.469L44.6191 199.487C41.7798 202.952 38.923 206.409 35.8728 209.692C35.36 210.235 34.8414 210.775 34.2906 211.283C33.936 211.591 33.5903 211.952 33.1303 212.116C32.7259 212.213 32.1839 212.316 32.0374 212.759C31.9289 213.026 32.0227 213.56 32.011 213.85C32.1311 214.769 32.7904 215.537 32.9691 216.453C33.2533 217.932 33.1361 219.437 33.2152 220.93C33.2328 222.424 33.2416 223.923 33.0599 225.408C32.9808 226.186 32.7933 226.869 32.2542 227.459C31.8147 228.064 31.4162 228.697 31.0704 229.358C31.4133 228.694 31.8059 228.058 32.2425 227.45C32.7699 226.887 32.9545 226.156 33.0277 225.405C33.1947 223.92 33.1772 222.424 33.1478 220.933C33.057 219.457 33.1625 217.926 32.8724 216.479C32.6849 215.555 32.011 214.795 31.8909 213.856C31.885 213.524 31.8147 213.049 31.9143 212.718C32.0784 212.219 32.6527 212.084 33.1039 211.978C33.52 211.814 33.8511 211.473 34.191 211.174C37.9385 207.471 41.2143 203.313 44.5663 199.258C48.2582 206.177 53.1836 213.882 59.6503 218.454C65.0856 221.743 71.2416 223.618 77.2102 225.707C84.1046 227.984 91.084 230.024 98.125 231.802C101.061 232.506 103.997 233.284 106.997 233.636C113.648 233.885 120.308 233.342 126.963 233.354C128.176 233.354 129.386 233.354 130.599 233.436C131.205 233.489 131.83 233.504 132.401 233.75C133.435 234.173 135.533 235.297 135.65 233.492C135.685 231.177 133.916 229.308 133.687 227.025C133.508 225.517 133.693 223.991 133.532 222.483C133.503 222.23 133.47 221.77 133.16 221.732L133.154 221.723Z" fill="#FF2F61"/>
<path d="M165.557 197.369C161.942 198.002 160.846 187.04 161.203 184.528C161.32 182.912 162.044 181.048 163.799 180.667C164.385 180.491 164.995 180.491 165.549 180.262L166.108 180.027C167.611 179.417 169.126 178.845 170.688 178.396C171.394 178.237 172.132 177.926 172.865 178.12C173.02 178.205 173.055 178.29 173.129 178.369C174.128 179.663 175.007 181.019 175.865 182.398C176.501 183.437 177.128 184.487 177.632 185.599C177.814 186.016 178.001 186.465 178.004 186.967C177.553 186.908 177.096 186.767 176.738 186.477C176.425 186.221 176.188 185.919 175.924 185.652C175.42 185.098 174.772 184.722 174.052 184.534C172.97 184.244 171.807 184.285 170.691 184.355L169.56 184.473C169.006 184.596 168.399 184.901 167.922 185.271C164.4 188.096 163.981 193.375 165.554 197.371L165.557 197.369ZM165.557 197.369C164.617 195.024 164.294 192.401 164.892 189.927C165.42 187.794 166.63 185.658 168.616 184.59C168.909 184.446 169.214 184.326 169.536 184.252L170.676 184.123C172.194 184.012 173.832 183.953 175.209 184.731C176.205 185.265 176.686 186.541 177.884 186.676L177.732 186.811C177.644 186.066 177.193 185.315 176.85 184.637C176.466 183.93 176.053 183.237 175.628 182.551C174.714 181.148 173.826 179.649 172.748 178.381C172.1 178.252 171.406 178.519 170.767 178.666C169.22 179.106 167.705 179.672 166.211 180.274L165.654 180.505C165.086 180.746 164.441 180.746 163.87 180.916C162.211 181.277 161.552 183.029 161.417 184.558C161.051 187.008 161.991 197.973 165.56 197.374L165.557 197.369Z" fill="#FF2F61"/>
<path d="M91.7813 160.151C91.0341 160.08 88.274 159.634 87.8784 160.297C87.7378 160.887 87.9224 161.509 87.981 162.108C88.1246 163.088 88.2564 164.074 88.2886 165.071C88.3238 166.119 88.2476 167.181 87.9868 168.208C86.9525 167.654 86.264 166.644 85.9387 165.556C85.6604 164.505 85.6164 163.458 85.3908 162.404C85.215 161.028 84.4034 158.243 86.1321 157.604C86.4368 157.387 86.4515 156.914 86.5072 156.553C86.598 155.515 86.5072 154.452 86.4134 153.399C86.0823 150.224 85.5022 147.076 84.8868 143.948L86.0149 138.071L85.0363 143.974C85.4787 145.893 85.9065 148.153 86.2464 150.207C86.5511 152.319 86.9144 154.429 86.7826 156.58C86.7211 157.017 86.6947 157.598 86.2552 157.859C86.1731 157.9 86.0677 157.93 85.9915 157.979C84.8458 158.731 85.5139 161.166 85.6574 162.354C85.9856 163.877 85.8889 165.57 86.85 166.87C87.143 167.29 87.5298 167.662 87.9575 167.915L87.7876 167.994C88.2769 166.078 88.0865 164.071 87.8257 162.128C87.773 161.515 87.603 160.87 87.77 160.256C88.1714 159.499 90.9931 160.048 91.7754 160.151H91.7813Z" fill="#FF2F61"/>
<path d="M86.1526 157.756C87.6879 157.296 89.2585 157.087 90.8407 156.876C89.3581 157.481 87.7436 157.692 86.1526 157.756Z" fill="#FF2F61"/>
<path d="M87.9105 168.026C88.1537 171.923 88.3969 175.82 88.7046 179.71C88.9917 183.085 89.6451 187.932 90.0026 191.351C90.4245 195.227 90.8728 199.123 91.0398 203.014C91.6024 207.859 92.6191 212.644 93.2667 217.486C93.3546 218.378 93.17 219.534 94.093 220.021C94.9632 220.414 95.9829 220.144 96.9029 220.056C97.4801 219.956 98.1159 219.88 98.6316 219.628C98.6316 219.628 98.6375 219.625 98.6316 219.631C98.6258 219.64 98.6199 219.654 98.6228 219.666L98.6141 219.598L98.5848 219.425C98.1745 217.025 97.5387 214.616 97.7526 212.16C97.193 205.596 95.6605 199.161 94.9837 192.609C94.6702 189.939 94.0959 186.468 93.9465 183.903C93.255 180.887 93.2667 177.785 93.2257 174.71C93.1729 172.034 93.3692 169.332 93.0059 166.676C92.9561 166.365 92.8213 165.864 92.5957 165.773C92.5312 165.773 92.4873 165.72 92.4609 165.676C92.2441 164.998 92.2734 164.074 92.1972 163.375C92.1327 162.706 92.1474 162.008 91.9628 161.365L91.8837 161.242C91.62 160.424 91.6815 159.564 91.6405 158.722L91.6346 158.132C91.6317 157.935 91.6464 157.733 91.6141 157.56C91.5526 157.155 91.1307 156.941 90.7498 156.955L90.7585 156.867L90.8259 156.169C90.9519 152.624 90.6267 149.074 90.3894 145.538C90.1022 141.762 89.7594 137.985 89.3814 134.215C90.0788 141.281 90.9519 148.358 91.0076 155.468C91.0105 155.849 90.9607 156.501 90.9138 156.897L90.8347 156.806C91.0516 156.814 91.2537 156.873 91.4325 156.999C91.8163 157.252 91.8046 157.745 91.7958 158.138L91.8017 158.725C91.8397 159.532 91.7929 160.4 92.0331 161.172C92.2441 161.465 92.2236 161.85 92.2763 162.193C92.3701 163.094 92.4111 164.221 92.5195 165.127C92.5459 165.286 92.5576 165.462 92.625 165.605C92.6309 165.614 92.6045 165.585 92.5898 165.597C93.0381 165.714 93.088 166.277 93.1846 166.65C93.5597 169.32 93.3692 172.031 93.4308 174.716C93.4777 177.768 93.4747 180.872 94.1691 183.854C94.3479 186.547 94.9075 189.889 95.2357 192.586C95.9301 199.135 97.4948 205.587 98.0193 212.16C97.7995 214.584 98.4236 217.002 98.8279 219.39L98.8572 219.578C98.866 219.637 98.8778 219.71 98.8426 219.769C98.8309 219.792 98.8221 219.795 98.8133 219.807C98.7928 219.83 98.7723 219.845 98.7576 219.854C98.1833 220.144 97.5504 220.191 96.9381 220.309C95.7807 220.423 94.1838 220.848 93.4015 219.713C93.003 219.053 93.1026 218.222 93.0352 217.518C92.9268 216.556 92.7686 215.59 92.6162 214.628C92.0038 210.772 91.2977 206.931 90.8465 203.046C90.6853 199.138 90.2516 195.265 89.8385 191.38C89.4869 187.941 88.8657 183.129 88.605 179.731C88.3266 175.834 88.1156 171.938 87.9017 168.038L87.9105 168.026Z" fill="#FF2F61"/>
<path d="M92.8652 215.438C94.0636 214.921 95.3236 214.572 96.6186 214.414C97.0376 214.393 97.5416 214.293 97.9108 214.534C97.5006 214.411 97.064 214.581 96.6538 214.64C95.391 214.907 94.1515 215.238 92.8652 215.438Z" fill="#FF2F61"/>
<path d="M5.86877 131.935C7.3719 132.114 8.88381 132.231 10.3957 132.278C11.8901 132.296 13.4489 132.346 14.8817 131.882C15.5116 131.466 15.412 130.465 15.4208 129.77C15.4061 128.593 15.1483 127.416 15.2977 126.234C15.5028 125.486 16.3291 123.702 16.6221 122.95C17.6711 120.377 19.2416 116.824 20.1235 114.236C20.4224 113.502 20.4165 112.695 20.6187 111.953C20.8062 111.187 21.026 110.433 21.2575 109.685C21.7351 108.182 22.2097 106.692 22.8514 105.245C23.6367 103.898 24.1172 102.399 24.3692 100.864C24.5186 99.9108 24.5714 98.9367 24.4073 97.9889C24.378 97.807 24.3106 97.6661 24.2051 97.5194C23.0419 96.3281 20.2876 96.4983 18.7025 96.513C17.1818 96.5951 15.538 96.7301 14.0935 97.094C14.0759 97.2348 14.0612 97.3903 14.0554 97.54C14.0114 98.5758 13.9997 100.586 13.9851 101.648C13.9323 103.411 13.9792 105.192 13.695 106.947C11.14 112.449 9.27058 118.262 7.38362 124.03C6.36396 126.53 5.95668 129.247 5.8717 131.938L5.86877 131.935ZM5.86877 131.935C5.91859 129.247 6.30242 126.492 7.28693 123.998C9.09478 118.215 10.9612 112.405 13.4899 106.9C13.903 103.863 13.6803 100.592 13.8063 97.5253C13.8415 97.2935 13.7653 96.9737 13.9997 96.868C15.5292 96.4426 17.1144 96.3457 18.6907 96.2401C20.2671 96.1902 21.8728 96.1491 23.3964 96.6597C24.3253 96.9913 24.7442 97.5224 24.7648 98.5317C24.879 100.122 24.5597 101.707 24.0615 103.206C23.8301 103.957 23.4638 104.673 23.0829 105.354C22.4471 106.771 21.9607 108.273 21.4831 109.752C21.2487 110.498 21.026 111.249 20.8385 112.006C20.6627 112.581 20.6685 113.179 20.5074 113.737C19.6078 116.583 17.9289 120.23 16.7862 123.018C16.5049 123.716 15.664 125.559 15.4589 126.263C15.3094 127.416 15.5614 128.599 15.5644 129.764C15.5409 130.512 15.6523 131.533 14.9227 131.985C13.4547 132.44 11.9076 132.364 10.3957 132.331C8.88088 132.267 7.3719 132.129 5.86877 131.932V131.935Z" fill="#FF2F61"/>
<path d="M6.19397 128.267C9.07422 127.226 12.2211 126.882 15.2596 127.24C12.2094 127.287 9.17385 127.613 6.19397 128.267Z" fill="#FF2F61"/>
<path d="M78.0596 119.35C78.7686 119.893 78.4258 121.915 78.2705 122.707C77.9131 124.136 77.6933 124.849 76.1023 125.072C74.3706 125.333 72.6184 125.198 70.8809 125.107C70.374 125.092 69.6473 125.001 69.1668 125.075C67.2798 125.691 64.6809 127.094 62.8437 127.927C60.2096 129.124 57.5872 130.471 54.745 131.128C53.0192 131.395 51.5278 132.34 50.0979 133.294C48.6593 134.268 47.3056 135.365 45.9021 136.392C43.5698 138.109 42.9515 138.117 42.4505 135.066C42.2835 133.907 42.2249 132.739 42.2102 131.574C42.2424 130.397 42.134 129.203 42.4768 128.062C43.0277 126.947 44.1851 126.395 45.2751 125.955C49.7024 124.027 54.203 121.95 58.7885 120.307C59.0698 120.192 59.5064 120.119 59.8023 120.04C62.1317 119.294 64.1183 117.748 66.4418 116.973C66.7817 116.882 67.1392 116.912 67.4879 116.85L68.5222 116.695C71.2677 116.263 74.0981 115.929 76.8524 116.466C74.0922 115.967 71.2794 116.334 68.5398 116.8L67.5055 116.967C67.1656 117.035 66.811 117.009 66.477 117.102C63.8575 118.033 61.6014 119.884 58.8442 120.477C54.2557 122.143 49.8225 124.221 45.3542 126.184C44.1235 126.683 42.5677 127.46 42.556 128.974C42.4124 130.984 42.4622 133.03 42.7376 135.025C42.8284 135.591 42.931 136.16 43.139 136.68C43.2416 136.932 43.391 137.184 43.5815 137.272C43.7631 137.334 44.0532 137.223 44.2964 137.102C44.7975 136.847 45.2721 136.512 45.7409 136.178C47.1503 135.157 48.5098 134.065 49.9573 133.094C51.3989 132.137 52.9577 131.172 54.704 130.911C58.5512 129.99 62.3075 127.903 65.9144 126.281C66.4389 126.034 66.9663 125.791 67.4967 125.556C68.2849 125.213 69.1346 124.778 70.0224 124.913C71.9855 125.007 74.1362 125.266 76.0876 124.993C76.6297 124.893 77.2626 124.781 77.6083 124.315C77.9072 123.825 78.0889 123.264 78.2236 122.704C78.3965 121.897 78.7481 119.913 78.0566 119.356L78.0596 119.35Z" fill="#FF2F61"/>
<path d="M44.1794 137.305C45.4657 140.826 48.1877 148.05 47.2589 151.621L47.1651 151.512C48.3459 151.366 49.5795 151.075 50.7603 151.36C51.1764 151.492 51.0328 151.859 50.9537 152.17C49.6029 156.184 47.4229 160.435 45.9608 164.402C44.9588 168.478 43.1538 175.33 42.3422 179.37C42.2104 180.068 42.0668 180.814 42.0346 181.524L42.0287 181.591C41.2698 182.222 39.7257 182.378 39.1807 181.403C39.1426 181.327 39.1484 181.183 39.1543 181.095C39.2627 179.323 39.4268 177.557 39.5938 175.79C39.7315 174.379 39.881 172.967 40.0597 171.559C40.3205 169.816 40.4435 167.994 41.138 166.348C41.3899 165.726 42.0756 164.039 42.3364 163.393C43.3589 160.878 46.1132 154.182 47.1798 151.592C46.1337 154.235 43.4996 160.905 42.4799 163.452C42.2192 164.106 41.5482 165.782 41.2933 166.412C40.6135 168.044 40.5021 169.842 40.2501 171.582C40.0802 172.988 39.9366 174.399 39.8048 175.808C39.6466 177.612 39.4795 179.42 39.3858 181.227C39.4209 181.488 39.6934 181.644 39.9337 181.732C40.5578 181.958 41.2962 181.826 41.8265 181.418L41.7767 181.521C41.8089 180.79 41.9496 180.027 42.0814 179.317C42.8462 175.291 44.7068 168.372 45.7264 164.32C47.2091 160.35 49.4007 156.122 50.7749 152.117C50.8189 151.967 50.8746 151.768 50.8599 151.641C50.8072 151.55 50.6109 151.492 50.4468 151.465C49.3685 151.339 48.2639 151.524 47.1944 151.674L47.0625 151.694L47.1036 151.565C48.006 148.082 45.41 140.794 44.1794 137.302V137.305Z" fill="#FF2F61"/>
<path d="M13.83 103.717C15.2598 103.655 17.431 103.64 18.8814 103.62C20.1413 103.599 21.4042 103.605 22.6612 103.514C23.0743 103.476 23.508 103.467 23.8918 103.297C23.5343 103.529 23.089 103.573 22.6788 103.658C21.4247 103.843 20.153 103.896 18.8872 103.913C17.1995 103.925 15.5118 103.878 13.83 103.717Z" fill="#FF2F61"/>
<path d="M46.0109 138.684C49.524 142.293 52.9522 145.984 56.269 149.778C59.5302 153.607 62.9291 157.413 65.32 161.873C66.0818 163.56 73.4216 176.16 67.9981 174.619C64.4585 173.713 60.8311 171.873 57.4616 170.45C56.5943 170.077 55.7299 169.699 54.8392 169.391C54.5403 169.303 54.2385 169.171 53.925 169.2C54.2385 169.165 54.5461 169.291 54.845 169.373C55.7445 169.664 56.6177 170.027 57.4909 170.382C60.8751 171.723 64.523 173.534 68.045 174.399C68.5167 174.464 69.1408 174.666 69.4895 174.273C70.2923 173.006 68.9093 170.101 68.3966 168.777C66.3397 164.2 64.0806 159.67 60.8927 155.755C56.2251 149.819 51.1443 144.218 46.0138 138.684H46.0109Z" fill="#FF2F61"/>
<path d="M75.8975 128.267C76.4864 132.255 77.1398 136.322 76.7472 140.365C76.4776 141.985 75.7216 143.449 75.1884 144.975C74.7723 146.099 74.6287 147.305 74.9745 148.452L75.3759 149.593C76.4835 153.496 76.7325 157.654 76.1289 161.662C75.8535 163.258 75.4111 164.845 74.6258 166.263C75.3525 164.813 75.7627 163.232 75.9883 161.638C76.4337 158.446 76.252 155.177 75.6806 152.014C75.4784 150.864 75.1239 149.623 74.6991 148.531C74.5291 147.935 74.4383 147.299 74.5027 146.68C74.7342 144.447 76.1465 142.522 76.4952 140.321C76.92 136.31 76.3399 132.252 75.8945 128.261L75.8975 128.267Z" fill="#FF2F61"/>
<path d="M72.0882 159.637C72.387 160.268 72.6419 160.922 72.8471 161.597C72.9701 162.114 73.1694 162.671 72.9613 163.205C72.4925 164.077 71.2326 162.211 70.8868 161.853C68.742 159.092 66.858 156.128 65.2025 153.05C67.0895 155.978 68.994 158.907 71.0949 161.685C71.5168 162.202 71.9505 162.795 72.4867 163.176C72.5511 163.214 72.6214 163.238 72.6449 163.226C73.3012 162.812 72.2991 160.298 72.0882 159.637Z" fill="#FF2F61"/>
<path d="M50.9595 205.749C67.5759 218.249 88.5053 225.619 109.215 226.84C110.46 226.937 112.148 226.949 113.402 227.004L111.307 226.969C89.6949 226.479 68.0623 219.035 50.9595 205.746V205.749Z" fill="#FF2F61"/>
<path d="M91.7812 216.377C89.0475 216.488 86.2932 216.506 83.5565 216.52C83.539 216.52 83.3514 216.52 83.3632 216.52C83.3632 216.514 83.3632 216.541 83.3632 216.532L87.5268 217.63C88.942 217.99 90.3484 218.404 91.7842 218.671C88.9742 218.319 86.2229 217.533 83.4774 216.864L83.3456 216.828C83.0672 216.799 82.9676 216.421 83.2137 216.271C83.3602 216.198 83.4364 216.239 83.5595 216.23C86.2962 216.242 89.0504 216.262 91.7842 216.374L91.7812 216.377Z" fill="#FF2F61"/>
<path d="M100.592 219.375C104.679 220.707 108.864 222.483 112.986 223.689L113.402 223.762C111.146 223.521 109.019 222.626 106.883 221.916C104.762 221.13 102.655 220.311 100.592 219.375Z" fill="#FF2F61"/>
<path d="M80.2924 169.2C82.8855 178.349 85.4229 192.09 82.2702 201.204C81.7398 202.656 81.0191 204.059 79.9994 205.226C80.9663 204.018 81.6519 202.615 82.1325 201.157C85.0684 192.028 82.531 178.451 80.2924 169.203V169.2Z" fill="#FF2F61"/>
<path d="M30.4316 205.749C31.3341 207.219 32.1106 208.754 32.7552 210.35C32.9691 210.849 32.9515 211.444 33.1185 212.04C32.9427 211.658 32.7903 211.221 32.7142 210.816C32.6702 210.705 32.6087 210.564 32.5471 210.441C31.8234 208.941 31.0177 207.304 30.4346 205.749H30.4316Z" fill="#FF2F61"/>
<path d="M42.0756 195.265C43.5172 195.778 44.3903 197.313 44.531 198.783C44.5427 198.997 44.5515 199.208 44.5456 199.42C44.4841 199.214 44.4489 199.009 44.3903 198.806C44.0211 197.416 43.2886 196.089 42.0785 195.262L42.0756 195.265Z" fill="#FF2F61"/>
<path d="M28.4304 72.37C30.1767 75.8676 31.882 79.3858 33.5317 82.9303C35.3542 86.9356 37.2558 90.9203 38.671 95.0927C39.1281 96.4924 39.0255 98.0182 39.2277 99.4736C39.6262 103.361 40.0657 107.246 40.6195 111.114C40.9447 113.027 41.0737 115.025 41.7827 116.841C41.0297 115.04 40.848 113.041 40.4759 111.134C39.8635 107.27 39.3625 103.391 38.9581 99.5C38.7472 98.0593 38.8497 96.5804 38.3926 95.1778C35.5827 87.3728 31.8498 79.9198 28.4246 72.37H28.4304Z" fill="#FF2F61"/>
<path d="M140.957 140.788C143.412 140.606 147.274 140.535 149.05 142.504C149.328 142.839 149.515 143.255 149.586 143.687C149.395 144.215 149.008 144.652 148.56 144.954C147.265 145.829 145.654 146.034 144.253 146.606C143.796 146.8 143.339 147.044 143.254 147.545C142.835 148.948 143.544 150.896 145.199 150.961C143.33 150.993 142.515 148.616 143.201 147.108C143.412 146.747 143.802 146.545 144.156 146.38C145.117 145.975 146.119 145.758 147.063 145.392C147.532 145.21 147.992 145.001 148.393 144.717C148.8 144.441 149.134 144.071 149.31 143.625L149.304 143.698C149.187 142.924 148.625 142.319 147.96 141.938C145.844 140.811 143.31 140.767 140.96 140.788H140.957Z" fill="#FF2F61"/>
<path d="M94.8929 97.5869C95.5991 98.4466 96.5484 99.6409 97.2546 100.471C98.0545 101.419 98.8515 102.373 99.7393 103.229C100.114 103.573 100.489 103.984 100.976 104.142C101.629 104.086 102.283 103.793 102.933 103.623L104.712 103.062L105.605 102.798C105.904 102.716 106.206 102.622 106.517 102.593C105.916 102.739 105.342 102.986 104.758 103.2L103.006 103.837C102.417 104.045 101.831 104.245 101.213 104.391C101.137 104.415 101.014 104.427 100.932 104.406C100.375 104.254 99.9561 103.808 99.54 103.438C97.7849 101.654 96.2935 99.6526 94.8959 97.584L94.8929 97.5869Z" fill="#FF2F61"/>
<path d="M26.0862 81.7595C27.6157 89.8639 28.9782 98.0123 30.8447 106.046C30.9531 106.445 31.0468 106.85 31.2197 107.205C31.3574 107.408 31.6592 107.783 31.8087 107.986C33.1829 109.77 34.5571 111.568 35.7086 113.511C36.2799 114.541 36.9509 115.618 36.9773 116.838C36.9656 117.208 36.7546 117.584 36.4352 117.766C35.0669 118.517 33.2942 117.537 32.0577 116.9C31.3984 116.527 30.7626 116.119 30.1678 115.641C29.8953 115.395 29.6111 115.166 29.2859 114.987C27.9908 114.286 26.5756 113.731 25.1076 113.552C24.7443 113.517 24.3722 113.502 24.0352 113.596C22.8983 113.866 23.3173 116.718 23.4609 117.61C23.6719 118.687 23.9151 119.822 24.5245 120.744C24.6271 120.888 24.7589 121.02 24.9054 121.052C25.8167 121.31 26.6664 121.724 27.5278 122.102C29.5642 123.056 31.583 124.068 33.4612 125.31C34.0589 125.744 34.7417 126.152 35.102 126.818C34.7329 126.158 34.0443 125.761 33.4407 125.339C32.8137 124.931 32.1603 124.558 31.5039 124.2C29.5232 123.147 27.4897 122.173 25.3947 121.378C25.0226 121.237 24.5948 121.207 24.3839 120.847C23.7393 119.896 23.4873 118.749 23.2587 117.642C23.121 116.9 23.039 116.146 23.0478 115.383C23.08 114.729 23.1064 113.913 23.6748 113.467C24.4894 113.094 25.424 113.323 26.2533 113.502C27.5337 113.845 28.7936 114.324 29.9012 115.063C30.5985 115.673 31.3691 116.208 32.1896 116.656C33.2034 117.234 36.1657 118.646 36.6667 116.944C36.8103 114.737 32.9807 110.025 31.5918 108.147C31.4395 107.948 31.1406 107.56 30.997 107.355C30.7919 106.959 30.6982 106.522 30.5868 106.111C28.735 98.0622 27.4692 89.8932 26.0774 81.7595H26.0862Z" fill="#FF2F61"/>
<path d="M22.2771 149.541C21.2165 150.295 20.147 151.043 19.1361 151.862C18.6702 152.263 18.1077 152.674 17.7883 153.191C17.756 153.249 17.7385 153.317 17.7473 153.334C17.7502 153.349 17.7531 153.361 17.8352 153.387C18.2835 153.528 18.7757 153.584 19.2445 153.657C20.5279 153.854 21.8259 153.989 23.1181 154.159C24.2403 154.347 25.9075 154.444 26.9682 154.825C26.8217 154.755 26.6547 154.746 26.4964 154.719C25.6057 154.605 24.0059 154.476 23.0946 154.385C21.7966 154.262 20.5015 154.124 19.2064 153.951C18.7142 153.869 18.2249 153.81 17.7443 153.648C17.6769 153.631 17.5099 153.549 17.4894 153.393C17.4513 152.369 21.3483 150.119 22.2859 149.546L22.2771 149.541Z" fill="#FF2F61"/>
<path d="M14.4861 164.455C16.0507 163.728 18.2278 162.753 19.7573 162.017C21.905 160.949 24.167 160.007 26.0833 158.563C26.2503 158.417 26.4349 158.223 26.3821 158.106C26.3323 157.947 26.136 157.789 25.9456 157.668C24.2813 156.756 22.3211 156.354 20.4663 155.966C19.6371 155.814 18.7991 155.653 17.9553 155.67C17.8381 155.682 17.7092 155.682 17.6095 155.752C17.8146 155.62 18.0813 155.641 18.3186 155.626C19.0482 155.626 19.7719 155.72 20.4927 155.826C21.8581 156.069 26.0569 156.77 26.6459 158.032C26.7367 158.334 26.4671 158.596 26.2708 158.775C25.8899 159.106 25.4768 159.364 25.0607 159.62C21.6853 161.539 18.0959 163.038 14.489 164.455H14.4861Z" fill="#FF2F61"/>
<path d="M74.0894 187.213C70.673 185.896 65.018 183.572 61.6191 182.421C61.2294 182.304 60.828 182.152 60.4324 182.116C60.4383 182.113 60.45 182.113 60.4764 182.084C60.4998 182.058 60.5057 182.017 60.5027 182.002C60.4969 181.975 60.4969 181.984 60.5027 181.993C60.5701 182.081 60.7049 182.19 60.825 182.281C63.9192 184.499 67.2536 186.418 70.2804 188.745C70.7843 189.135 71.2824 189.534 71.7571 189.962C72.2083 190.397 72.7358 190.831 72.9526 191.435C72.7065 190.843 72.1673 190.438 71.7044 190.021C71.218 189.613 70.7081 189.232 70.1925 188.859C69.164 188.114 68.1033 187.407 67.0368 186.711C65.1469 185.461 62.4542 183.827 60.6404 182.509C60.4881 182.383 59.9607 182.019 60.3474 181.838C60.8192 181.817 61.2587 182.031 61.7011 182.154C65.9087 183.636 70.0049 185.414 74.0836 187.213H74.0894Z" fill="#FF2F61"/>
<path d="M109.672 86.6715C110.417 83.749 110.088 80.5888 108.829 77.8629L108.436 77.0501L107.976 76.2755C107.847 76.0466 107.648 75.7209 107.487 75.5184C106.991 74.7878 106.356 74.066 105.784 73.397C106.001 73.6082 106.218 73.8195 106.432 74.0366C106.95 74.5149 107.487 75.2103 107.917 75.7708C108.158 76.1464 108.43 76.5483 108.659 76.9298C108.899 77.4169 109.262 78.083 109.435 78.5935C109.488 78.7344 109.634 79.1011 109.684 79.2361C110.422 81.6275 110.54 84.3006 109.672 86.6715Z" fill="#FF2F61"/>
<path d="M108.714 64.741C109.778 67.0825 110.912 70.6505 111.805 73.1036C112.705 75.5624 113.76 79.1305 114.867 81.4661C114.656 81.158 114.495 80.8206 114.337 80.4861C112.06 75.4069 110.531 69.9933 108.714 64.741Z" fill="#FF2F61"/>
<path d="M177.864 186.805C179.206 187.994 180.527 189.208 181.834 190.438C182.798 191.397 183.823 192.269 184.638 193.372C184.67 193.41 184.708 193.533 184.705 193.578C184.96 195.743 185.291 197.908 185.543 200.077C185.734 201.931 186.056 203.765 185.992 205.643C185.406 207.26 184.403 208.809 183.565 210.314C181.62 213.439 180.005 216.476 180.085 210.397C180.131 209.387 180.111 208.343 180.41 207.363C181.057 206.309 181.529 205.165 182.112 204.076C182.329 203.683 182.534 203.278 182.836 202.944C182.546 203.287 182.352 203.698 182.15 204.097C181.646 205.1 181.227 206.142 180.694 207.134C180.574 207.333 180.474 207.495 180.448 207.729C180.301 208.604 180.275 209.505 180.266 210.397C180.269 211.289 180.29 212.192 180.468 213.052C180.518 213.257 180.58 213.486 180.691 213.618C181.122 214.026 183.053 210.62 183.331 210.177C184.16 208.683 185.089 207.198 185.696 205.599C185.757 203.78 185.452 201.922 185.271 200.106C185.174 199.255 184.541 194.34 184.488 193.58C184.488 193.539 184.477 193.545 184.477 193.531C184.477 193.519 184.456 193.489 184.447 193.472C183.677 192.407 182.645 191.488 181.722 190.541C180.451 189.276 179.15 188.041 177.852 186.805H177.864Z" fill="#FF2F61"/>
<path d="M167.316 190.913C168.763 192.87 170.823 195.241 173.46 195.174C173.498 195.171 173.498 195.168 173.533 195.188C175.074 196.116 175.458 198.064 175.945 199.657C176.112 200.265 176.235 200.893 176.493 201.465C176.783 202.01 177.281 202.442 177.823 202.732C178.192 202.923 178.623 203.052 179.033 202.944C178.626 203.087 178.171 202.985 177.785 202.812C176.991 202.462 176.323 201.796 176.082 200.945C175.405 199.097 175.148 196.594 173.401 195.438C170.987 195.614 168.567 193.043 167.313 190.913H167.316Z" fill="#FF2F61"/>
<path d="M165.557 197.368C166.483 198.648 167.38 199.948 168.276 201.247C168.487 201.541 168.763 201.949 168.9 202.274C169.401 203.337 169.818 204.463 170.468 205.435C170.682 205.752 170.922 206.06 171.224 206.253C171.526 206.465 171.927 206.459 172.291 206.467C173.846 206.423 175.408 206.095 176.908 205.675C177.638 205.435 178.47 205.267 179.036 204.722C178.505 205.317 177.67 205.526 176.949 205.81C175.437 206.294 173.887 206.685 172.291 206.735C171.88 206.735 171.432 206.735 171.075 206.491C170.711 206.259 170.453 205.928 170.225 205.596C169.566 204.584 169.167 203.463 168.672 202.38C168.534 202.057 168.282 201.664 168.092 201.371C167.236 200.044 166.384 198.712 165.56 197.365L165.557 197.368Z" fill="#FF2F61"/>
<path d="M171.303 206.465C171.69 207.459 172.173 208.495 172.15 209.581C172.062 209.915 171.828 210.162 171.655 210.42L171.166 211.089C170.533 211.975 169.859 212.858 169.349 213.818C169.249 214.029 169.112 214.302 169.132 214.522C169.46 215.147 172.405 214.871 172.88 214.387C172.399 214.986 169.129 215.505 168.883 214.569C168.845 214.235 168.989 213.982 169.109 213.701C169.358 213.193 169.662 212.726 169.97 212.269C170.509 211.497 171.133 210.702 171.693 209.942C171.989 209.631 171.977 209.29 171.907 208.859C171.775 208.046 171.538 207.254 171.3 206.465H171.303Z" fill="#FF2F61"/>
<path d="M178.297 205.224C178.335 206.289 178.426 207.509 177.793 208.431C176.697 209.288 175.487 210.021 174.453 210.96C173.571 211.726 172.622 212.718 172.935 213.979C173.003 214.314 173.134 214.672 173.448 214.836C174.242 214.898 175.057 214.493 175.81 214.252C177.333 213.651 178.877 212.994 180.175 211.969C178.951 213.096 177.406 213.809 175.892 214.464C175.098 214.757 174.315 215.136 173.442 215.112C172.941 214.957 172.762 214.478 172.66 214.035C172.302 212.656 173.31 211.573 174.277 210.761C175.227 209.945 176.258 209.246 177.31 208.58C177.691 208.381 177.884 208.064 178.004 207.668C178.247 206.89 178.291 206.051 178.297 205.227V205.224Z" fill="#FF2F61"/>
<path d="M178.157 200.89C178.063 199.933 178.464 198.665 179.622 198.695C179.877 198.704 180.152 198.727 180.375 198.88C181.418 199.654 181.421 201.157 181.362 202.333C181.292 202.765 181.286 203.287 180.934 203.604C180.905 203.633 180.826 203.645 180.788 203.648C180.044 203.618 179.17 203.39 178.787 202.685C178.666 202.468 178.614 202.225 178.599 201.987C178.681 202.456 178.939 202.885 179.364 203.105C179.792 203.348 180.299 203.425 180.788 203.416C180.902 203.337 180.943 203.14 180.984 202.996C181.201 201.846 181.227 199.886 180.24 199.097C178.883 198.434 178.201 199.66 178.16 200.89H178.157Z" fill="#FF2F61"/>
<path d="M177.278 191.5C178.632 193.53 179.971 195.587 180.844 197.882C180.876 197.996 180.923 198.17 180.885 198.31C180.776 198.973 180.958 199.651 181.087 200.306C180.937 199.927 180.823 199.534 180.735 199.135C180.68 198.844 180.639 198.53 180.694 198.231C180.618 197.762 180.331 197.31 180.126 196.87C179.267 195.2 178.119 193.178 177.278 191.506V191.5Z" fill="#FF2F61"/>
<path d="M175.13 206.215C175.517 207.694 175.399 209.431 174.503 210.711C175.018 209.261 175.106 207.741 175.13 206.215Z" fill="#FF2F61"/>
<path d="M39.2716 136.776C39.5353 140.183 39.6935 143.66 39.0606 147.038C38.9405 147.545 38.8087 148.067 38.5332 148.522C37.8359 149.543 36.3767 150.054 35.2603 149.42C34.9585 149.256 34.6655 149.033 34.5337 148.71C34.6948 149.015 34.9966 149.209 35.2955 149.35C36.2214 149.787 37.3378 149.499 38.0205 148.766C38.4951 148.326 38.6475 147.63 38.7969 146.982C38.9317 146.319 39.0079 145.644 39.0665 144.966C39.3097 142.249 39.2775 139.505 39.2687 136.776H39.2716Z" fill="#FF2F61"/>
</g>
<defs>
<filter id="filter0_d_96_1281" x="0" y="0" width="190" height="242.576" filterUnits="userSpaceOnUse" color-interpolation-filters="sRGB">
<feFlood flood-opacity="0" result="BackgroundImageFix"/>
<feColorMatrix in="SourceAlpha" type="matrix" values="0 0 0 0 0 0 0 0 0 0 0 0 0 0 0 0 0 0 127 0" result="hardAlpha"/>
<feOffset dy="4"/>
<feGaussianBlur stdDeviation="2"/>
<feComposite in2="hardAlpha" operator="out"/>
<feColorMatrix type="matrix" values="0 0 0 0 1 0 0 0 0 0.184314 0 0 0 0 0.380078 0 0 0 1 0"/>
<feBlend mode="normal" in2="BackgroundImageFix" result="effect1_dropShadow_96_1281"/>
<feBlend mode="normal" in="SourceGraphic" in2="effect1_dropShadow_96_1281" result="shape"/>
</filter>
</defs>
</svg>
