<svg width="259" height="259" viewBox="0 0 259 259" fill="none" xmlns="http://www.w3.org/2000/svg">
<g filter="url(#filter0_f_148_53)">
<path d="M254.514 128.925C254.388 95.8339 241.187 64.1321 217.788 40.7332C194.387 17.3339 162.687 4.13352 129.597 4.00785C129.481 4 129.369 4 129.261 4C129.153 4 129.041 4 128.925 4.00785C95.8339 4.13352 64.1321 17.3344 40.7332 40.7332C17.3339 64.1346 4.13352 95.8349 4.00785 128.925C4 129.041 4 129.153 4 129.261C4 129.369 4 129.481 4.00785 129.597C4.13352 162.688 17.3344 194.39 40.7332 217.788C64.1346 241.188 95.8349 254.388 128.925 254.514C129.041 254.522 129.153 254.522 129.261 254.522C129.369 254.522 129.481 254.522 129.597 254.514C162.688 254.388 194.389 241.187 217.788 217.788C241.188 194.387 254.388 162.687 254.514 129.597C254.522 129.481 254.522 129.369 254.522 129.261C254.522 129.153 254.522 129.041 254.514 128.925ZM228.548 57.7282C224.388 52.6644 219.825 47.9439 214.904 43.6145C210.574 38.6939 205.854 34.1308 200.79 29.9698C211.463 37.6826 220.835 47.0542 228.548 57.7282ZM182.394 232.594C179.92 233.715 177.387 234.732 174.826 235.698L174.824 235.7C180.491 230.552 185.559 224.779 189.93 218.494C194.142 216.585 198.251 214.455 202.239 212.116C196.553 219.786 189.881 226.672 182.394 232.594ZM56.2815 212.116C60.2694 214.455 64.3789 216.585 68.5907 218.494C72.9614 224.779 78.0291 230.55 83.6961 235.699C81.1337 234.733 78.6006 233.714 76.1286 232.594H76.1266C68.6395 226.673 61.9656 219.787 56.2816 212.117L56.2815 212.116ZM76.1265 25.9309C78.6006 24.8097 81.1335 23.7926 83.6941 22.8266L83.6961 22.8246C78.0296 27.9728 72.9617 33.7459 68.5906 40.0307C64.3789 41.9392 60.2691 44.0696 56.2815 46.4084C61.9676 38.7388 68.6399 31.8527 76.1265 25.9309ZM202.239 46.4083C198.251 44.0697 194.142 41.9393 189.93 40.0305C185.559 33.7453 180.491 27.9747 174.824 22.826C177.387 23.792 179.92 24.8111 182.392 25.9303H182.394C189.881 31.8521 196.555 38.7381 202.239 46.4077L202.239 46.4083ZM157.229 240.913C156.079 241.166 154.932 241.433 153.77 241.657C157.628 237.267 160.989 232.46 163.788 227.327C166.399 226.716 168.983 226.053 171.522 225.309V225.311C167.499 231.144 162.69 236.395 157.229 240.913ZM86.9976 225.311C89.5364 226.055 92.1202 226.717 94.732 227.329V227.327C97.53 232.46 100.892 237.266 104.75 241.657C103.586 241.435 102.441 241.166 101.29 240.913C95.8299 236.395 91.0209 231.144 86.9976 225.311ZM14.5541 129.262C14.5541 128.742 14.5856 128.228 14.5915 127.709C17.896 127.214 22.161 126.733 27.2836 126.278C27.264 127.273 27.2228 128.263 27.2228 129.264C27.2228 130.266 27.266 131.253 27.2836 132.251C22.161 131.795 17.8959 131.314 14.5915 130.819C14.5836 130.297 14.5541 129.783 14.5541 129.262ZM101.288 17.6114C102.439 17.3581 103.586 17.091 104.748 16.8672C100.89 21.2576 97.5282 26.0643 94.7299 31.197C92.1184 31.8076 89.5344 32.4714 86.9955 33.2155V33.2135C91.0187 27.3802 95.8273 22.1293 101.288 17.6114ZM171.525 33.2155C168.986 32.4713 166.402 31.8096 163.791 31.197H163.789C160.991 26.0643 157.629 21.2579 153.771 16.8671C154.935 17.089 156.08 17.358 157.23 17.6113C162.691 22.1294 167.5 27.38 171.523 33.2134L171.525 33.2155ZM243.968 129.264C243.968 129.784 243.937 130.299 243.931 130.817C240.627 131.312 236.362 131.793 231.239 132.248C231.259 131.253 231.3 130.263 231.3 129.262C231.3 128.26 231.257 127.273 231.239 126.275C236.362 126.731 240.627 127.212 243.931 127.707C243.939 128.229 243.968 128.743 243.968 129.264ZM228.117 160.36C228.578 158.151 228.981 155.913 229.346 153.658H229.344C234.065 151.72 238.577 149.313 242.814 146.47C242.682 147.467 242.539 148.459 242.382 149.449C238.139 153.709 233.34 157.379 228.117 160.36ZM16.14 149.449C15.9849 148.459 15.8416 147.466 15.7081 146.47C19.9453 149.313 24.4574 151.72 29.1779 153.659C29.5411 155.913 29.9456 158.151 30.407 160.36H30.405C25.1819 157.379 20.383 153.71 16.14 149.449ZM12.7569 145.488C11.999 144.493 11.294 143.458 10.6461 142.388C11.2548 142.969 11.9028 143.542 12.592 144.112C12.643 144.571 12.6999 145.031 12.7569 145.488ZM32.243 154.913C36.2172 156.462 40.5646 157.907 45.2257 159.243C45.75 162.323 46.3548 165.355 47.0381 168.34C42.4788 166.569 38.0294 164.525 33.7156 162.217C33.1697 159.81 32.6711 157.377 32.243 154.913ZM30.036 129.264C30.036 128.182 30.0792 127.112 30.1028 126.038C33.9277 125.724 38.1514 125.425 42.7754 125.142C42.744 126.515 42.7027 127.884 42.7027 129.266C42.7027 130.648 42.744 132.017 42.7754 133.389C38.1493 133.108 33.924 132.81 30.1028 132.494C30.0792 131.416 30.036 130.346 30.036 129.264ZM16.14 109.079C20.3831 104.818 25.1818 101.149 30.405 98.1678C29.9436 100.377 29.541 102.615 29.1758 104.869H29.1778C24.4575 106.807 19.9454 109.215 15.708 112.058C15.8396 111.06 15.9829 110.067 16.14 109.079ZM12.5919 114.416C11.9047 114.983 11.2567 115.559 10.6461 116.14C11.294 115.07 11.9989 114.035 12.7568 113.039C12.6999 113.497 12.643 113.956 12.5919 114.416ZM33.7152 96.31C38.029 94.0048 42.4786 91.9588 47.0377 90.1876C46.3583 93.1741 45.7536 96.2059 45.2254 99.2847C40.564 100.62 36.2167 102.065 32.2427 103.614C32.6707 101.15 33.1694 98.7171 33.7152 96.31ZM242.38 109.079C242.535 110.068 242.678 111.062 242.812 112.057C238.574 109.214 234.062 106.807 229.342 104.869C228.979 102.615 228.574 100.376 228.113 98.1672H228.115C233.338 101.148 238.137 104.817 242.38 109.079ZM245.763 113.039C246.521 114.034 247.226 115.069 247.874 116.139C247.265 115.558 246.617 114.985 245.928 114.415C245.877 113.956 245.82 113.496 245.763 113.039ZM226.277 103.614C222.303 102.065 217.955 100.62 213.294 99.2845C212.77 96.2037 212.165 93.1721 211.482 90.1873C216.041 91.9584 220.49 94.0024 224.804 96.3098C225.35 98.7171 225.849 101.15 226.277 103.614ZM228.484 129.263C228.484 130.345 228.44 131.415 228.417 132.489C224.592 132.804 220.368 133.102 215.744 133.385C215.776 132.012 215.817 130.644 215.817 129.261C215.817 127.879 215.776 126.51 215.744 125.138C220.37 125.419 224.596 125.717 228.417 126.033C228.44 127.111 228.484 128.181 228.484 129.263ZM45.5152 129.263C45.5152 127.826 45.5565 126.402 45.5898 124.977C49.5581 124.749 53.7797 124.537 58.2524 124.341C58.217 125.976 58.1836 127.612 58.1836 129.263C58.1836 130.915 58.219 132.55 58.2543 134.188C53.7854 133.992 49.5638 133.779 45.5918 133.552C45.5565 132.124 45.5152 130.701 45.5152 129.263ZM213.002 129.263C213.002 130.701 212.96 132.124 212.927 133.55C208.959 133.777 204.737 133.989 200.265 134.186C200.302 132.55 200.335 130.915 200.335 129.263C200.335 127.612 200.3 125.976 200.265 124.339C204.734 124.535 208.955 124.747 212.927 124.975C212.962 126.402 213.004 127.826 213.004 129.263L213.002 129.263ZM60.9972 129.263C60.9972 127.573 61.0305 125.894 61.0678 124.219C65.1107 124.05 69.3306 123.897 73.7248 123.756C73.6915 125.584 73.664 127.416 73.664 129.263C73.664 131.111 73.6915 132.943 73.7268 134.769C69.3266 134.63 65.1072 134.475 61.0698 134.306C61.0305 132.633 60.9972 130.954 60.9972 129.263ZM197.52 129.263C197.52 130.954 197.486 132.633 197.449 134.308C193.406 134.476 189.186 134.63 184.792 134.771C184.827 132.943 184.855 131.111 184.855 129.265C184.855 127.418 184.827 125.586 184.792 123.76C189.192 123.899 193.412 124.054 197.449 124.223C197.486 125.894 197.52 127.573 197.52 129.263ZM129.258 151.078C127.167 151.078 125.098 151.068 123.046 151.046C123.001 146.919 122.968 142.703 122.948 138.399C125.043 138.407 127.146 138.411 129.259 138.411C131.372 138.411 133.474 138.407 135.57 138.401C135.55 142.702 135.517 146.917 135.472 151.048C133.418 151.066 131.346 151.078 129.259 151.078H129.258ZM135.438 153.862C135.383 158.188 135.314 162.403 135.232 166.513C133.25 166.542 131.259 166.56 129.258 166.56C127.257 166.56 125.267 166.544 123.285 166.513C123.203 162.401 123.134 158.184 123.079 153.862C125.141 153.882 127.201 153.892 129.258 153.893C131.314 153.893 133.374 153.884 135.438 153.862ZM129.258 135.597C127.132 135.597 125.023 135.593 122.936 135.588C122.928 133.496 122.926 131.39 122.924 129.263C122.924 127.137 122.928 125.028 122.934 122.941C125.025 122.933 127.132 122.931 129.259 122.929C131.385 122.929 133.494 122.933 135.581 122.939C135.589 125.03 135.591 127.137 135.593 129.263C135.593 131.39 135.589 133.498 135.583 135.586C133.492 135.593 131.385 135.595 129.258 135.597ZM76.4791 129.263C76.4791 127.388 76.5046 125.526 76.54 123.671C80.6241 123.549 84.8419 123.441 89.1929 123.347C89.1655 125.308 89.1497 127.28 89.1458 129.263C89.1458 131.248 89.1615 133.222 89.1929 135.179C84.8378 135.085 80.6201 134.977 76.54 134.855C76.5046 133 76.4791 131.138 76.4791 129.263ZM91.9616 129.263C91.9616 127.262 91.9773 125.271 92.0087 123.29C96.1203 123.207 100.338 123.139 104.66 123.084C104.64 125.145 104.63 127.205 104.628 129.263C104.628 131.319 104.638 133.378 104.66 135.442C100.334 135.387 96.1184 135.318 92.0087 135.236C91.9792 133.255 91.9616 131.264 91.9616 129.263ZM107.444 129.263C107.444 127.172 107.454 125.102 107.475 123.05C111.603 123.005 115.819 122.972 120.122 122.952C120.115 125.047 120.111 127.15 120.111 129.263C120.111 131.376 120.115 133.479 120.12 135.574C115.82 135.554 111.605 135.521 107.473 135.476C107.456 133.422 107.444 131.351 107.444 129.264V129.263ZM129.258 107.448C131.35 107.448 133.419 107.458 135.471 107.48C135.516 111.607 135.549 115.823 135.569 120.127C133.474 120.119 131.371 120.115 129.258 120.115C127.145 120.115 125.042 120.119 122.947 120.125C122.967 115.825 123 111.609 123.045 107.478C125.099 107.46 127.171 107.448 129.258 107.448H129.258ZM123.079 104.664C123.134 100.338 123.203 96.1229 123.285 92.0132C125.267 91.9837 127.258 91.966 129.259 91.966C131.259 91.966 133.25 91.9818 135.232 92.0132C135.314 96.1248 135.383 100.342 135.438 104.664C133.376 104.644 131.316 104.635 129.259 104.633C127.203 104.633 125.143 104.643 123.079 104.664ZM138.397 122.952C142.697 122.972 146.912 123.005 151.044 123.051C151.061 125.104 151.073 127.176 151.073 129.263C151.073 131.354 151.063 133.424 151.042 135.475C146.915 135.521 142.699 135.554 138.395 135.574C138.403 133.478 138.407 131.376 138.407 129.263C138.407 127.15 138.405 125.047 138.397 122.952V122.952ZM153.858 123.084C158.183 123.139 162.399 123.208 166.509 123.29C166.538 125.271 166.556 127.262 166.556 129.263C166.556 131.264 166.54 133.255 166.509 135.236C162.397 135.319 158.18 135.388 153.858 135.443C153.877 133.381 153.887 131.321 153.889 129.263C153.889 127.208 153.879 125.148 153.858 123.084ZM169.325 123.347C173.68 123.441 177.897 123.549 181.978 123.671C182.013 125.527 182.038 127.388 182.038 129.263C182.038 131.138 182.013 133 181.978 134.855C177.893 134.977 173.676 135.085 169.325 135.179C169.352 133.218 169.368 131.246 169.372 129.263C169.372 127.278 169.356 125.305 169.325 123.347ZM184.717 120.932C184.607 117.205 184.436 113.514 184.184 109.881C188.565 110.296 192.753 110.759 196.777 111.26C197.051 114.592 197.248 117.969 197.364 121.387C193.285 121.219 189.058 121.067 184.717 120.932ZM181.899 120.844C177.789 120.724 173.568 120.618 169.267 120.527C169.183 116.518 169.042 112.567 168.845 108.676C173.147 108.953 177.316 109.269 181.349 109.628C181.608 113.316 181.791 117.054 181.899 120.845L181.899 120.844ZM166.444 120.469C162.305 120.388 158.097 120.319 153.821 120.266C153.764 116.139 153.668 112.018 153.532 107.902C157.787 108.063 161.938 108.261 165.983 108.501C166.197 112.436 166.352 116.426 166.444 120.469ZM151.007 120.235C146.85 120.19 142.642 120.156 138.386 120.137C138.366 115.882 138.334 111.674 138.287 107.515C142.517 107.572 146.662 107.669 150.72 107.802C150.854 111.859 150.948 116.004 151.007 120.235ZM138.256 104.702C138.203 100.425 138.134 96.2173 138.054 92.0784C142.095 92.1707 146.085 92.3238 150.023 92.5398C150.261 96.5827 150.461 100.732 150.622 104.991C146.51 104.855 142.389 104.759 138.255 104.702L138.256 104.702ZM137.995 89.2549C137.902 84.9548 137.798 80.7333 137.679 76.6236C141.466 76.7355 145.203 76.9181 148.894 77.1714C149.251 81.2064 149.569 85.3728 149.846 89.6751C145.958 89.4787 142.008 89.3374 137.995 89.2549ZM135.175 89.198C133.214 89.1705 131.242 89.1548 129.259 89.1509C127.274 89.1509 125.3 89.1666 123.342 89.198C123.437 84.8429 123.545 80.6251 123.666 76.545C125.522 76.5097 127.383 76.4842 129.259 76.4842C131.134 76.4842 132.995 76.5097 134.851 76.545C134.97 80.6291 135.081 84.847 135.175 89.198ZM120.524 89.2549C116.514 89.3394 112.563 89.4807 108.672 89.6771C108.949 85.375 109.265 81.2063 109.624 77.1734C113.31 76.9162 117.048 76.7336 120.839 76.6256C120.72 80.7333 120.616 84.9547 120.524 89.2549ZM120.465 92.0785C120.384 96.2176 120.315 100.425 120.262 104.702C116.135 104.759 112.014 104.855 107.898 104.99C108.059 100.736 108.257 96.5844 108.497 92.5395C112.432 92.3255 116.422 92.1708 120.465 92.0785ZM120.231 107.516C120.186 111.672 120.152 115.88 120.133 120.137C115.878 120.157 111.67 120.188 107.511 120.235C107.568 116.006 107.665 111.861 107.798 107.802C111.855 107.669 116 107.575 120.231 107.516ZM104.698 120.267C100.421 120.32 96.2133 120.388 92.0744 120.469C92.1667 116.428 92.3199 112.438 92.5358 108.5C96.5787 108.262 100.728 108.062 104.987 107.901C104.851 112.012 104.755 116.134 104.698 120.267L104.698 120.267ZM89.251 120.528C84.9509 120.62 80.7294 120.724 76.6196 120.844C76.7315 117.056 76.9142 113.32 77.1674 109.629C81.2024 109.271 85.3688 108.953 89.6711 108.676C89.4748 112.564 89.3334 116.515 89.251 120.528ZM73.8022 120.932C69.4609 121.068 65.2334 121.219 61.1553 121.388C61.277 117.973 61.4734 114.598 61.7424 111.26C65.7656 110.76 69.9538 110.296 74.3345 109.882C74.0832 113.514 73.9122 117.206 73.8022 120.932ZM73.8022 137.595C73.9122 141.321 74.083 145.013 74.3343 148.645C69.9537 148.231 65.7655 147.767 61.7422 147.267C61.4673 143.935 61.2709 140.557 61.1551 137.139C65.2333 137.308 69.4607 137.459 73.8022 137.595ZM76.6199 137.683C80.7295 137.803 84.951 137.909 89.2512 137.999C89.3357 142.009 89.477 145.959 89.6734 149.851C85.3713 149.574 81.2026 149.258 77.1697 148.898C76.9105 145.211 76.7279 141.473 76.6199 137.681L76.6199 137.683ZM92.0747 138.058C96.2138 138.138 100.421 138.207 104.698 138.26C104.755 142.387 104.851 146.509 104.987 150.625C100.732 150.464 96.5806 150.265 92.5357 150.026C92.3217 146.091 92.167 142.101 92.0747 138.058ZM107.512 138.292C111.669 138.337 115.877 138.37 120.133 138.39C120.153 142.645 120.184 146.853 120.231 151.011C116.002 150.954 111.857 150.858 107.799 150.724C107.665 146.668 107.571 142.523 107.512 138.292ZM120.263 153.825C120.316 158.101 120.385 162.309 120.465 166.448C116.424 166.356 112.434 166.203 108.496 165.987C108.258 161.944 108.058 157.795 107.897 153.536C112.009 153.671 116.13 153.767 120.263 153.824L120.263 153.825ZM120.524 169.272C120.616 173.572 120.72 177.793 120.84 181.903C117.053 181.791 113.316 181.608 109.625 181.355C109.267 177.32 108.949 173.154 108.672 168.851C112.56 169.048 116.511 169.189 120.524 169.272ZM123.344 169.328C125.305 169.356 127.277 169.372 129.26 169.376C131.245 169.376 133.218 169.36 135.176 169.328C135.082 173.684 134.974 177.901 134.852 181.981C132.997 182.017 131.135 182.042 129.26 182.042C127.385 182.042 125.524 182.017 123.668 181.981C123.548 177.897 123.438 173.68 123.344 169.328ZM137.995 169.272C142.005 169.187 145.955 169.046 149.847 168.849C149.57 173.151 149.254 177.32 148.895 181.353C145.209 181.61 141.47 181.793 137.679 181.901C137.799 177.793 137.903 173.572 137.995 169.272ZM138.054 166.448C138.135 162.309 138.203 158.101 138.256 153.825C142.384 153.768 146.505 153.672 150.621 153.536C150.46 157.791 150.261 161.942 150.022 165.987C146.087 166.201 142.097 166.356 138.054 166.448ZM138.288 151.011C138.333 146.854 138.366 142.646 138.386 138.389C142.641 138.37 146.849 138.338 151.007 138.291C150.95 142.521 150.854 146.666 150.721 150.724C146.664 150.858 142.519 150.952 138.288 151.011ZM153.821 138.26C158.098 138.207 162.305 138.138 166.444 138.058C166.352 142.098 166.199 146.089 165.983 150.027C161.94 150.264 157.791 150.465 153.532 150.626C153.667 146.514 153.764 142.393 153.821 138.259L153.821 138.26ZM169.268 137.999C173.568 137.906 177.789 137.802 181.899 137.683C181.787 141.47 181.605 145.207 181.351 148.898C177.316 149.255 173.15 149.573 168.848 149.85C169.044 145.962 169.185 142.012 169.268 137.999ZM184.717 137.594C189.058 137.459 193.285 137.307 197.363 137.139C197.242 140.553 197.045 143.929 196.776 147.266C192.753 147.767 188.565 148.23 184.184 148.645C184.436 145.012 184.607 141.321 184.717 137.594ZM200.185 137.017C204.587 136.824 208.826 136.614 212.849 136.383C212.736 139.281 212.537 142.148 212.288 144.989C208.314 145.672 204.09 146.312 199.615 146.907C199.878 143.65 200.067 140.353 200.185 137.017ZM200.185 121.509C200.069 118.175 199.879 114.878 199.615 111.616C204.094 112.207 208.318 112.846 212.288 113.535C212.539 116.378 212.736 119.243 212.85 122.141C208.826 121.911 204.589 121.701 200.185 121.509ZM199.358 108.673C199.04 105.288 198.647 101.95 198.18 98.6574C202.61 99.5979 206.843 100.619 210.839 101.722C211.297 104.619 211.705 107.54 212.019 110.509C207.984 109.841 203.765 109.229 199.358 108.673ZM196.501 108.322C192.437 107.839 188.247 107.403 183.958 107.012C183.656 103.238 183.281 99.5251 182.833 95.8733C187.122 96.5291 191.266 97.2575 195.268 98.0606C195.761 101.424 196.166 104.851 196.501 108.322ZM181.131 106.763C177.055 106.415 172.908 106.109 168.69 105.844C168.455 101.801 168.16 97.8366 167.805 93.949C171.959 94.3849 176.016 94.8856 179.977 95.453C180.434 99.1543 180.819 102.926 181.129 106.763L181.131 106.763ZM165.825 105.677C161.732 105.441 157.602 105.245 153.434 105.088C153.279 100.923 153.082 96.794 152.845 92.6964C156.925 92.9496 160.937 93.2658 164.878 93.6447C165.255 97.5816 165.571 101.591 165.824 105.677L165.825 105.677ZM152.68 89.8316C152.417 85.6179 152.11 81.4709 151.761 77.3908C155.598 77.6991 159.368 78.0839 163.071 78.5454C163.636 82.4999 164.139 86.5568 164.575 90.7173C160.687 90.3638 156.721 90.0693 152.678 89.8337L152.68 89.8316ZM151.512 74.5633C151.123 70.275 150.685 66.0849 150.202 62.0204C153.671 62.3562 157.1 62.7607 160.463 63.2555C161.262 67.2551 161.993 71.4001 162.651 75.6903C159 75.2406 155.288 74.8656 151.51 74.5652L151.512 74.5633ZM148.641 74.3356C145.008 74.0842 141.319 73.9134 137.59 73.8034C137.455 69.4621 137.304 65.2346 137.135 61.1565C140.55 61.2782 143.925 61.4746 147.263 61.7436C147.761 65.7688 148.227 69.9571 148.641 74.3378L148.641 74.3356ZM134.767 73.7288C132.938 73.6955 131.107 73.668 129.259 73.668C127.411 73.668 125.579 73.6955 123.753 73.7308C123.893 69.3306 124.048 65.1112 124.217 61.0738C125.89 61.0345 127.568 61.0012 129.259 61.0012C130.949 61.0012 132.628 61.0345 134.303 61.0718C134.47 65.1167 134.625 69.3361 134.764 73.7309L134.767 73.7288ZM120.93 73.8035C117.203 73.9134 113.512 74.0842 109.879 74.3356C110.294 69.955 110.757 65.7667 111.258 61.7434C114.59 61.4685 117.967 61.2722 121.385 61.1563C121.214 65.2365 121.063 69.4638 120.928 73.8053L120.93 73.8035ZM107.011 74.5633C103.237 74.8657 99.5235 75.2408 95.8717 75.6884C96.5275 71.4001 97.2559 67.2553 98.059 63.2536C101.423 62.7588 104.851 62.3543 108.32 62.0186C107.833 66.085 107.398 70.2753 107.009 74.5655L107.011 74.5633ZM106.761 77.3908C106.414 81.4671 106.107 85.6138 105.842 89.8316C101.799 90.0673 97.8349 90.3618 93.9474 90.7172C94.3833 86.5624 94.884 82.5057 95.4514 78.5452C99.1527 78.0877 102.922 77.7029 106.759 77.3926L106.761 77.3908ZM105.675 92.6963C105.438 96.7902 105.241 100.919 105.084 105.088C100.92 105.243 96.7905 105.439 92.6928 105.677C92.9461 101.597 93.2622 97.5851 93.6412 93.6443C97.578 93.2673 101.588 92.9512 105.674 92.6979L105.675 92.6963ZM89.83 105.842C85.6163 106.105 81.4693 106.411 77.3892 106.761C77.6975 102.924 78.0823 99.154 78.5437 95.4509C82.4983 94.8854 86.5551 94.3828 90.7157 93.9469C90.3603 97.8347 90.0657 101.801 89.8301 105.844L89.83 105.842ZM74.5617 107.01C70.2734 107.399 66.0833 107.837 62.0188 108.32C62.3546 104.85 62.7591 101.422 63.2539 98.0585C67.2535 97.2594 71.3985 96.5289 75.6887 95.8712C75.2371 99.5213 74.8621 103.234 74.5616 107.012L74.5617 107.01ZM59.1597 108.671C54.7614 109.227 50.5416 109.838 46.4987 110.507C46.8128 107.538 47.2213 104.616 47.6788 101.721C51.6745 100.617 55.9098 99.5961 60.3378 98.6556C59.8665 101.945 59.4738 105.283 59.1596 108.674L59.1597 108.671ZM58.9025 111.617C58.6413 114.876 58.4509 118.173 58.3331 121.509C53.9309 121.701 49.6918 121.911 45.6685 122.143C45.7824 119.245 45.9807 116.378 46.2301 113.537C50.2042 112.852 54.4278 112.212 58.9025 111.617ZM58.3331 137.017C58.4489 140.351 58.6394 143.647 58.9025 146.909C54.4237 146.318 50.2004 145.68 46.2299 144.991C45.9786 142.147 45.7822 139.283 45.6683 136.385C49.6916 136.614 53.9292 136.824 58.3331 137.017ZM59.1597 149.852C59.4778 153.237 59.8705 156.575 60.3378 159.868C55.9081 158.927 51.675 157.906 47.6788 156.803C47.2213 153.907 46.8129 150.985 46.4987 148.016C50.5337 148.684 54.7534 149.296 59.1597 149.852ZM62.0166 150.203C66.0811 150.686 70.2713 151.122 74.5595 151.513C74.8619 155.287 75.2369 159 75.6846 162.652C71.3963 161.996 67.2515 161.268 63.2498 160.465C62.7569 157.101 62.3523 153.675 62.0166 150.203ZM77.387 151.763C81.4632 152.11 85.61 152.416 89.8278 152.681C90.0634 156.724 90.358 160.689 90.7134 164.576C86.5586 164.14 82.5019 163.64 78.5414 163.072C78.0839 159.371 77.6991 155.599 77.3888 151.762L77.387 151.763ZM92.6925 152.848C96.7844 153.084 100.913 153.28 105.084 153.437C105.239 157.602 105.436 161.731 105.673 165.829C101.593 165.576 97.5813 165.26 93.6404 164.881C93.2634 160.944 92.9473 156.934 92.694 152.848L92.6925 152.848ZM105.838 168.694C106.101 172.907 106.407 177.054 106.757 181.135C102.92 180.826 99.1502 180.441 95.4471 179.98C94.8816 176.025 94.379 171.969 93.943 167.808C97.8308 168.162 101.795 168.456 105.84 168.692L105.838 168.694ZM107.006 183.962C107.395 188.25 107.833 192.44 108.316 196.505C104.846 196.169 101.418 195.765 98.0547 195.27C97.2556 191.27 96.5251 187.125 95.8673 182.835C99.5175 183.285 103.23 183.66 107.008 183.96L107.006 183.962ZM109.877 184.19C113.51 184.441 117.199 184.612 120.927 184.722C121.063 189.063 121.214 193.291 121.383 197.369C117.968 197.247 114.593 197.051 111.255 196.782C110.757 192.757 110.291 188.568 109.877 184.188L109.877 184.19ZM123.751 184.797C125.579 184.832 127.411 184.859 129.257 184.859C131.105 184.859 132.937 184.832 134.763 184.797C134.623 189.197 134.468 193.416 134.299 197.454C132.624 197.491 130.948 197.524 129.255 197.524C127.565 197.524 125.886 197.491 124.211 197.454C124.048 193.409 123.893 189.189 123.753 184.795L123.751 184.797ZM137.588 184.722C141.315 184.612 145.006 184.441 148.639 184.19C148.224 188.57 147.761 192.759 147.26 196.782C143.928 197.057 140.551 197.253 137.133 197.369C137.303 193.289 137.455 189.062 137.59 184.72L137.588 184.722ZM151.507 183.962C155.281 183.66 158.994 183.285 162.646 182.837C161.99 187.125 161.262 191.27 160.459 195.272C157.095 195.767 153.667 196.171 150.198 196.507C150.685 192.44 151.12 188.25 151.509 183.96L151.507 183.962ZM151.757 181.135C152.104 177.058 152.411 172.912 152.676 168.694C156.719 168.458 160.683 168.164 164.571 167.808C164.135 171.963 163.634 176.02 163.066 179.98C159.367 180.438 155.595 180.822 151.759 181.133L151.757 181.135ZM152.843 165.829C153.078 161.737 153.275 157.608 153.432 153.437C157.596 153.282 161.726 153.086 165.823 152.848C165.57 156.929 165.254 160.94 164.875 164.881C160.94 165.258 156.93 165.574 152.844 165.827L152.843 165.829ZM168.688 152.683C172.902 152.42 177.049 152.114 181.129 151.765C180.82 155.601 180.436 159.371 179.974 163.074C176.02 163.64 171.963 164.143 167.802 164.578C168.158 160.691 168.452 156.726 168.688 152.682L168.688 152.683ZM183.956 151.515C188.245 151.126 192.435 150.689 196.499 150.206C196.163 153.675 195.759 157.104 195.264 160.467C191.264 161.266 187.119 161.996 182.829 162.654C183.281 159.004 183.656 155.291 183.956 151.513L183.956 151.515ZM199.358 149.854C203.757 149.298 207.976 148.688 212.019 148.018C211.705 150.987 211.297 153.909 210.839 156.805C206.843 157.908 202.608 158.929 198.18 159.87C198.651 156.581 199.044 153.243 199.358 149.852L199.358 149.854ZM214.886 147.537C219.445 146.734 223.714 145.854 227.647 144.904C227.417 147.119 227.14 149.314 226.816 151.49C222.874 153.076 218.512 154.563 213.822 155.943C214.238 153.173 214.599 150.373 214.886 147.535L214.886 147.537ZM215.155 144.482C215.385 141.751 215.571 139 215.677 136.218C216.09 136.192 216.518 136.169 216.926 136.143C221.214 135.876 224.992 135.601 228.36 135.326C228.273 137.484 228.146 139.626 227.973 141.755C224.116 142.711 219.828 143.624 215.155 144.48V144.482ZM216.926 122.386C216.518 122.361 216.09 122.337 215.677 122.312C215.571 119.529 215.385 116.779 215.155 114.048C219.828 114.904 224.116 115.817 227.971 116.775C228.145 118.901 228.275 121.044 228.358 123.203C224.992 122.927 221.216 122.654 216.926 122.385V122.386ZM214.886 110.992C214.597 108.157 214.238 105.355 213.82 102.584C218.512 103.966 222.872 105.453 226.815 107.037C227.138 109.213 227.417 111.41 227.645 113.623C223.714 112.671 219.446 111.793 214.886 110.99L214.886 110.992ZM210.315 98.4608C206.321 97.3867 202.101 96.3971 197.689 95.492C197.122 91.9203 196.468 88.4155 195.732 84.9753C200.134 86.2064 204.334 87.5534 208.332 89.0123C209.072 92.1087 209.745 95.2523 210.315 98.4588L210.315 98.4608ZM194.764 94.897C190.807 94.1332 186.688 93.446 182.446 92.8235C181.918 88.922 181.309 85.1032 180.62 81.3704C184.771 82.201 188.81 83.116 192.694 84.135C193.474 87.6439 194.165 91.2311 194.764 94.895L194.764 94.897ZM179.591 92.4151C175.674 91.8791 171.653 91.4039 167.529 90.9916C167.119 86.8682 166.644 82.847 166.106 78.9297C170.068 79.4697 173.94 80.0941 177.72 80.803C178.423 84.5808 179.047 88.4506 179.591 92.4151ZM165.697 76.0746C165.075 71.8334 164.387 67.7139 163.624 63.7574C167.286 64.3563 170.873 65.0455 174.386 65.827C175.403 69.7109 176.32 73.7519 177.15 77.9009C173.422 77.2137 169.602 76.605 165.699 76.0748L165.697 76.0746ZM163.031 60.8319C162.124 56.4199 161.134 52.2003 160.062 48.2066C163.268 48.778 166.412 49.4496 169.512 50.1898C170.971 54.1777 172.316 58.3776 173.549 62.7895C170.113 62.0492 166.607 61.3974 163.031 60.8319ZM159.865 60.3411C156.577 59.8718 153.238 59.4791 149.849 59.1629C149.294 54.7647 148.683 50.5448 148.014 46.5019C150.982 46.8161 153.904 47.2245 156.8 47.682C157.902 51.6758 158.925 55.9111 159.865 60.3411ZM146.904 58.9057C143.645 58.6446 140.348 58.4541 137.012 58.3363C136.82 53.9341 136.61 49.6951 136.378 45.6718C139.276 45.7857 142.143 45.984 144.984 46.2334C145.669 50.2075 146.309 54.431 146.904 58.9057ZM134.183 58.2577C132.545 58.2204 130.909 58.1871 129.258 58.1871C127.607 58.1871 125.971 58.2224 124.334 58.2577C124.53 53.7888 124.742 49.5672 124.97 45.5952C126.397 45.5599 127.821 45.5187 129.258 45.5187C130.695 45.5187 132.119 45.5599 133.544 45.5933C133.772 49.5615 133.984 53.7831 134.183 58.2577ZM121.504 58.3363C118.17 58.4521 114.873 58.6426 111.612 58.9057C112.203 54.4269 112.841 50.2036 113.53 46.2331C116.373 45.9818 119.238 45.7854 122.136 45.6716C121.906 49.6948 121.696 53.9325 121.504 58.3363ZM108.669 59.1629C105.283 59.481 101.945 59.8737 98.6525 60.341C99.593 55.9114 100.614 51.6782 101.718 47.682C104.614 47.2245 107.535 46.8161 110.504 46.502C109.836 50.537 109.224 54.7566 108.669 59.1629ZM95.4852 60.8319C91.9136 61.3993 88.4088 62.0532 84.9686 62.7895C86.1997 58.3873 87.5467 54.1875 89.0055 50.1898C92.104 49.4495 95.2496 48.7761 98.4561 48.2067C97.382 52.2005 96.3924 56.42 95.4852 60.8319ZM94.8903 63.7575C94.1265 67.714 93.4392 71.8333 92.8168 76.0747C88.9153 76.6029 85.0965 77.2116 81.3637 77.9008C82.1942 73.7499 83.1093 69.7109 84.1283 65.8269C87.6391 65.0474 91.2264 64.3564 94.8903 63.7575ZM92.4104 78.9298C91.8743 82.8471 91.3991 86.8684 90.9868 90.9917C86.8634 91.4021 82.8422 91.8772 78.925 92.4152C79.4649 88.4528 80.0893 84.5807 80.7982 80.8012C84.576 80.0983 88.4459 79.4738 92.4104 78.9298ZM76.0699 92.8239C71.8287 93.4463 67.7091 94.1336 63.7527 94.8974C64.3515 91.2354 65.0407 87.648 65.8222 84.1354C69.7061 83.1183 73.7472 82.2013 77.8961 81.3708C77.2089 85.0995 76.6002 88.9187 76.0701 92.8219L76.0699 92.8239ZM60.8272 95.4903C56.4152 96.3975 52.1955 97.3871 48.2019 98.4592C48.7732 95.2527 49.4448 92.109 50.185 89.0086C54.1729 87.5498 58.3728 86.2047 62.7847 84.9717C62.0444 88.4078 61.3927 91.9144 60.8272 95.4903ZM44.6948 102.58C44.2766 105.353 43.9172 108.153 43.6286 110.988C39.0693 111.791 34.8009 112.671 30.8676 113.621C31.0973 111.407 31.3741 109.211 31.6981 107.036C35.6428 105.449 40.0036 103.963 44.6964 102.58H44.6948ZM43.3616 114.046C43.1319 116.777 42.9453 119.528 42.8393 122.31C42.4269 122.335 41.9989 122.359 41.5905 122.384C37.3022 122.651 33.5243 122.926 30.157 123.201C30.2434 121.043 30.371 118.901 30.5438 116.773C34.4001 115.815 38.6884 114.902 43.3616 114.046ZM41.5905 136.141C41.9989 136.167 42.427 136.19 42.8393 136.216C42.9454 138.998 43.1319 141.749 43.3616 144.48C38.6885 143.624 34.4002 142.711 30.5458 141.753C30.3711 139.626 30.2415 137.484 30.159 135.324C33.5245 135.599 37.3003 135.872 41.5905 136.141ZM43.6306 147.535C43.9193 150.371 44.2786 153.173 44.6968 155.943C40.004 154.561 35.6449 153.075 31.702 151.49C31.378 149.314 31.0992 147.117 30.8715 144.904C34.8024 145.855 39.071 146.732 43.6306 147.535ZM48.2017 160.067C52.1955 161.141 56.4152 162.13 60.827 163.035C61.3945 166.607 62.0483 170.112 62.7846 173.552C58.3824 172.321 54.1826 170.976 50.185 169.515C49.4447 166.417 48.7711 163.273 48.2017 160.067ZM63.753 163.63C67.7095 164.394 71.8288 165.081 76.0702 165.704C76.5984 169.605 77.2071 173.424 77.8963 177.157C73.7454 176.326 69.7064 175.411 65.8224 174.392C65.0429 170.882 64.3519 167.294 63.753 163.63ZM78.9253 166.11C82.8426 166.646 86.8638 167.122 90.9872 167.534C91.3975 171.657 91.8727 175.678 92.4107 179.596C88.4483 179.056 84.5762 178.431 80.7967 177.723C80.0938 173.945 79.4693 170.075 78.9253 166.11ZM92.8194 182.451C93.4418 186.692 94.129 190.812 94.8928 194.768C91.2309 194.169 87.6435 193.48 84.1309 192.698C83.1138 188.815 82.1968 184.774 81.3663 180.625C85.095 181.312 88.9142 181.92 92.8174 182.451L92.8194 182.451ZM95.4858 197.694C96.393 202.106 97.3826 206.325 98.4546 210.319C95.2482 209.747 92.1045 209.076 89.0041 208.336C87.5453 204.348 86.2002 200.148 84.9672 195.736C88.4033 196.476 91.9099 197.128 95.4858 197.694ZM98.653 198.184C101.942 198.654 105.28 199.046 108.669 199.363C109.225 203.761 109.835 207.981 110.505 212.024C107.536 211.709 104.614 211.301 101.718 210.843C100.615 206.85 99.5919 202.614 98.6513 198.184L98.653 198.184ZM111.614 199.62C114.874 199.881 118.17 200.071 121.506 200.189C121.699 204.591 121.909 208.83 122.141 212.854C119.243 212.74 116.376 212.541 113.535 212.292C112.847 208.318 112.207 204.094 111.612 199.62L111.614 199.62ZM124.336 200.268C125.972 200.305 127.607 200.338 129.258 200.338C130.91 200.338 132.545 200.303 134.183 200.268C133.987 204.737 133.775 208.958 133.547 212.93C132.121 212.964 130.698 213.005 129.261 213.005C127.823 213.005 126.4 212.964 124.974 212.93C124.744 208.964 124.532 204.742 124.334 200.268H124.336ZM137.015 200.189C140.349 200.073 143.645 199.883 146.907 199.62C146.316 204.099 145.678 208.322 144.989 212.292C142.145 212.544 139.281 212.74 136.382 212.854C136.61 208.831 136.82 204.593 137.013 200.189L137.015 200.189ZM149.85 199.363C153.235 199.044 156.573 198.652 159.866 198.184C158.925 202.614 157.904 206.847 156.801 210.843C153.905 211.301 150.983 211.709 148.014 212.024C148.68 207.988 149.293 203.769 149.848 199.362L149.85 199.363ZM163.033 197.694C166.605 197.126 170.11 196.472 173.55 195.736C172.317 200.138 170.972 204.338 169.511 208.336C166.412 209.076 163.267 209.749 160.06 210.319C161.134 206.325 162.124 202.105 163.031 197.693L163.033 197.694ZM163.628 194.768C164.392 190.811 165.079 186.692 165.702 182.451C169.603 181.923 173.422 181.314 177.155 180.625C176.324 184.776 175.409 188.815 174.39 192.699C170.877 193.478 167.29 194.169 163.626 194.768L163.628 194.768ZM166.108 179.596C166.644 175.678 167.119 171.657 167.532 167.534C171.655 167.123 175.676 166.648 179.594 166.11C179.054 170.073 178.429 173.945 177.72 177.724C173.941 178.427 170.07 179.052 166.106 179.595L166.108 179.596ZM182.449 165.702C186.69 165.079 190.809 164.392 194.766 163.628C194.167 167.29 193.478 170.877 192.696 174.39C188.812 175.407 184.771 176.324 180.622 177.155C181.308 173.426 181.916 169.607 182.446 165.704L182.449 165.702ZM197.689 163.035C202.101 162.128 206.321 161.138 210.315 160.066C209.743 163.273 209.072 166.416 208.331 169.517C204.344 170.976 200.144 172.321 195.732 173.554C196.472 170.118 197.124 166.611 197.689 163.035ZM213.293 159.242C217.955 157.906 222.302 156.461 226.276 154.912C225.848 157.376 225.349 159.809 224.803 162.216C220.49 164.523 216.04 166.567 211.481 168.339C212.16 165.354 212.765 162.32 213.293 159.242ZM245.927 144.11C246.614 143.543 247.262 142.968 247.873 142.387C247.225 143.457 246.52 144.491 245.762 145.487C245.819 145.029 245.876 144.57 245.927 144.11ZM246.322 139.975C246.363 139.463 246.396 138.95 246.432 138.436C247.345 137.955 248.175 137.462 248.943 136.959V136.957C248.158 138.037 247.28 139.047 246.322 139.975ZM243.274 142.585C239.118 145.652 234.608 148.212 229.844 150.211C230.119 148.214 230.354 146.202 230.551 144.173C234.974 143.064 239.306 141.619 243.51 139.85C243.435 140.763 243.367 141.678 243.274 142.585ZM230.836 141.008C230.985 139.045 231.105 137.071 231.177 135.084C236.536 134.607 240.681 134.124 243.859 133.643C243.828 134.615 243.797 135.587 243.744 136.551H243.745C239.571 138.387 235.253 139.877 230.835 141.006L230.836 141.008ZM231.177 123.443C231.103 121.456 230.985 119.482 230.836 117.519C235.253 118.648 239.571 120.138 243.746 121.974C243.799 122.94 243.83 123.912 243.862 124.882C240.683 124.403 236.538 123.918 231.18 123.443L231.177 123.443ZM230.549 114.352C230.353 112.323 230.117 110.311 229.842 108.314H229.844C234.608 110.312 239.118 112.873 243.275 115.94C243.367 116.847 243.436 117.762 243.51 118.675C239.306 116.908 234.975 115.461 230.551 114.351L230.549 114.352ZM246.322 118.55C247.28 119.478 248.158 120.488 248.943 121.567C248.175 121.065 247.345 120.572 246.432 120.091C246.396 119.576 246.363 119.062 246.322 118.55ZM245.067 108.1C244.996 107.656 244.92 107.214 244.843 106.772C245.485 107.793 246.084 108.826 246.64 109.869C246.143 109.274 245.615 108.685 245.069 108.102L245.067 108.1ZM241.655 104.752C237.264 100.894 232.457 97.5322 227.325 94.7339C226.714 92.1224 226.05 89.5384 225.306 86.9995H225.308C231.142 91.0227 236.392 95.8312 240.91 101.292C241.164 102.443 241.433 103.588 241.655 104.752ZM224.032 92.9706L224.036 92.9726C219.72 90.7715 215.288 88.8099 210.756 87.096C209.902 83.6519 208.94 80.2864 207.888 76.988H207.89C212.616 79.1891 217.191 81.7004 221.587 84.5022C222.477 87.2826 223.309 90.0984 224.034 92.9731L224.032 92.9706ZM207.564 85.9158C203.586 84.4981 199.417 83.1865 195.062 81.9848C194.165 78.1206 193.165 74.3564 192.06 70.6905C196.378 72.1337 200.511 73.7202 204.459 75.4501C205.604 78.8529 206.639 82.3403 207.564 85.9158ZM192.03 81.1837C188.164 80.1862 184.174 79.279 180.057 78.4642C179.244 74.3506 178.337 70.3608 177.338 66.4908C181.292 67.4353 185.131 68.4936 188.858 69.6639C190.022 73.3906 191.078 77.2313 192.03 81.1837ZM176.536 63.4589C175.339 59.1057 174.027 54.9373 172.605 50.9572C176.175 51.884 179.664 52.9187 183.071 54.0615C184.791 58.0121 186.377 62.1473 187.83 66.4611C184.171 65.3577 180.405 64.3562 176.536 63.4589ZM171.425 47.7642C169.711 43.2325 167.75 38.8008 165.549 34.485C168.425 35.2095 171.239 36.044 174.021 36.9315L174.019 36.9335C176.821 41.3298 179.332 45.9049 181.533 50.631C178.235 49.5805 174.869 48.6164 171.425 47.7642ZM150.42 13.4517C149.835 12.9078 149.246 12.3776 148.651 11.8769C149.693 12.4326 150.726 13.0315 151.747 13.6735C151.307 13.5989 150.863 13.5224 150.42 13.4517ZM145.483 12.7586C145.024 12.7016 144.566 12.6447 144.107 12.5936C143.54 11.9064 142.964 11.2585 142.383 10.6478C143.453 11.2957 144.488 12.0006 145.483 12.7586ZM149.444 16.1417C153.705 20.3849 157.374 25.1836 160.355 30.4067C158.146 29.9453 155.908 29.5427 153.654 29.1776V29.1795C151.716 24.4592 149.308 19.9472 146.465 15.7097C147.463 15.8413 148.456 15.9846 149.444 16.1417ZM162.212 33.7172C164.518 38.0311 166.564 42.4806 168.335 47.0398C165.348 46.3604 162.316 45.7556 159.238 45.2274C157.903 40.566 156.457 36.2187 154.908 32.2447C157.372 32.6727 159.805 33.1714 162.212 33.7172ZM155.941 44.7014C153.168 44.2831 150.368 43.9238 147.533 43.6352C146.73 39.0759 145.85 34.8075 144.9 30.8741C147.114 31.1039 149.31 31.3807 151.486 31.7047C153.072 35.6474 154.558 40.009 155.941 44.7014ZM144.476 43.3662C141.744 43.1365 138.994 42.9499 136.211 42.8439C136.186 42.4316 136.162 42.0035 136.137 41.5951C135.87 37.3068 135.595 33.5289 135.32 30.1616C137.478 30.248 139.62 30.3756 141.748 30.5484C142.707 34.4047 143.619 38.693 144.476 43.3662ZM133.382 42.7771C132.009 42.7457 130.641 42.7045 129.258 42.7045C127.876 42.7045 126.508 42.7457 125.135 42.7771C125.416 38.1511 125.714 33.9258 126.03 30.1046C127.106 30.081 128.177 30.0378 129.258 30.0378C130.34 30.0378 131.41 30.081 132.485 30.1046C132.799 33.9275 133.099 38.1532 133.382 42.7771ZM122.38 41.5951C122.355 42.0035 122.331 42.4316 122.305 42.8439C119.523 42.9499 116.772 43.1365 114.041 43.3662C114.897 38.693 115.81 34.4048 116.769 30.5504C118.895 30.3756 121.037 30.246 123.197 30.1636C122.922 33.529 122.649 37.3049 122.38 41.5951ZM110.986 43.6352C108.15 43.9238 105.348 44.2832 102.578 44.7014C103.96 40.0086 105.446 35.6495 107.031 31.7066C109.207 31.3826 111.404 31.1038 113.617 30.876C112.667 34.807 111.789 39.0755 110.986 43.6352ZM99.2793 45.2276C96.1986 45.7519 93.167 46.3566 90.1822 47.04C91.9533 42.4807 93.9973 38.0313 96.3046 33.7174C98.7119 33.1716 101.145 32.6729 103.609 32.2448C102.06 36.2189 100.615 40.5664 99.2793 45.2276ZM98.1621 30.4072C101.143 25.184 104.812 20.3851 109.073 16.1422C110.063 15.987 111.056 15.8437 112.052 15.7102C109.209 19.9475 106.802 24.4595 104.863 29.18C102.609 29.5432 100.373 29.9457 98.1621 30.4072ZM113.034 12.7593C114.029 12.0013 115.064 11.2964 116.134 10.6485C115.553 11.2572 114.98 11.9051 114.41 12.5943C113.951 12.6454 113.491 12.7023 113.034 12.7593ZM108.097 13.4524C107.654 13.5231 107.212 13.5996 106.77 13.6762C107.791 13.0342 108.824 12.4352 109.867 11.8796C109.27 12.3783 108.681 12.9065 108.097 13.4524ZM92.9704 34.4877L92.9684 34.4858C90.7673 38.8015 88.8058 43.233 87.0918 47.765C83.6478 48.6192 80.2823 49.5813 76.9838 50.6337V50.6318C79.1849 45.9056 81.6963 41.3305 84.4981 36.9343C87.2784 36.0448 90.0942 35.2122 92.9689 34.4877L92.9704 34.4877ZM85.9115 50.9579C84.4939 54.936 83.1822 59.1045 81.9806 63.4596C78.1164 64.3569 74.3522 65.3563 70.6863 66.4618C72.1295 62.144 73.716 58.0111 75.4459 54.0622C78.8487 52.9175 82.3361 51.8827 85.9115 50.9579ZM81.1794 66.4911C80.1819 70.3573 79.2748 74.3472 78.4599 78.4645C74.3464 79.2774 70.3566 80.1845 66.4866 81.184C67.431 77.2294 68.4894 73.3907 69.6596 69.664C73.3864 68.4996 77.227 67.4434 81.1794 66.4911ZM63.4546 81.9851C59.1015 83.1829 54.933 84.4945 50.9529 85.9161C51.8798 82.3464 52.9145 78.8572 54.0573 75.4507C58.0079 73.7306 62.1431 72.1441 66.4569 70.6911C65.3534 74.3511 64.352 78.1166 63.4546 81.9851ZM47.76 87.0962C43.2282 88.8104 38.7966 90.7719 34.4807 92.9728C35.2052 90.0962 36.0398 87.2827 36.9273 84.5005L36.9292 84.5024C41.3255 81.7005 45.9007 79.1893 50.6267 76.9882C49.5763 80.2869 48.6122 83.6525 47.76 87.0962ZM31.1918 94.7341C26.0591 97.5322 21.2527 100.894 16.862 104.752C17.0838 103.588 17.3528 102.443 17.6061 101.292C22.1242 95.8321 27.3749 91.0231 33.2082 86.9998C32.466 89.5386 31.8024 92.1223 31.1918 94.7341ZM13.4474 108.102C12.9036 108.687 12.3734 109.276 11.8727 109.871C12.4284 108.828 13.0273 107.796 13.6693 106.774C13.5947 107.214 13.5181 107.658 13.4474 108.102ZM12.1947 118.552C12.1535 119.064 12.1201 119.577 12.0847 120.091C11.1717 120.572 10.3411 121.065 9.5734 121.568C10.3588 120.488 11.2365 119.478 12.1947 118.55L12.1947 118.552ZM15.2421 115.94C19.3988 112.873 23.909 110.313 28.6727 108.314C28.3978 110.311 28.1622 112.323 27.9658 114.352C23.542 115.463 19.2105 116.908 15.0067 118.675C15.0814 117.762 15.1498 116.847 15.2421 115.94ZM27.6809 117.519C27.5317 119.482 27.4119 121.456 27.3393 123.443C21.9809 123.92 17.836 124.403 14.6571 124.884C14.6886 123.912 14.72 122.94 14.773 121.976L14.771 121.974C18.9455 120.138 23.263 118.648 27.6809 117.519ZM27.3393 135.084C27.4139 137.071 27.5317 139.045 27.6809 141.008V141.006C23.263 139.877 18.9452 138.387 14.7706 136.551C14.7176 135.585 14.6862 134.613 14.6547 133.643C17.8337 134.122 21.9785 134.607 27.3369 135.082L27.3393 135.084ZM27.9676 144.175C28.1639 146.204 28.3996 148.216 28.6744 150.213L28.6725 150.211C23.909 148.213 19.3989 145.652 15.2419 142.585C15.1496 141.678 15.0809 140.763 15.0063 139.85C19.2102 141.617 23.5414 143.064 27.9654 144.174L27.9676 144.175ZM12.1947 139.975C11.2365 139.047 10.3588 138.037 9.57338 136.958C10.3411 137.46 11.1717 137.953 12.0847 138.434C12.1201 138.949 12.1534 139.463 12.1947 139.975ZM13.4493 150.427C13.52 150.871 13.5966 151.313 13.6732 151.755C13.0311 150.734 12.4322 149.701 11.8766 148.658C12.3733 149.251 12.9016 149.84 13.4474 150.423L13.4493 150.427ZM16.862 153.773C21.2524 157.633 26.0591 160.993 31.1918 163.791C31.8024 166.403 32.4661 168.987 33.2103 171.526H33.2083C27.3749 167.502 22.1242 162.694 17.6062 157.233C17.3529 156.082 17.0838 154.937 16.862 153.773ZM34.4846 165.556L34.4807 165.552C38.7965 167.754 43.228 169.715 47.76 171.429C48.6141 174.873 49.5763 178.239 50.6287 181.537H50.6267C45.9006 179.336 41.3255 176.825 36.9292 174.023C36.0398 171.242 35.2072 168.427 34.4827 165.552L34.4846 165.556ZM50.9528 172.609C54.9309 174.027 59.0974 175.338 63.4545 176.54C64.3518 180.404 65.3512 184.169 66.4567 187.834C62.139 186.391 58.006 184.805 54.0571 183.075C52.9124 179.672 51.8776 176.185 50.9528 172.609ZM66.486 177.341C70.3522 178.339 74.3421 179.246 78.4594 180.061C79.2723 184.174 80.1795 188.164 81.1789 192.034C77.2244 191.09 73.3856 190.031 69.6589 188.861C68.4946 185.134 67.4383 181.294 66.486 177.341ZM81.98 195.066C83.1778 199.419 84.4894 203.588 85.911 207.568C82.3413 206.641 78.8521 205.606 75.4456 204.463C73.7255 200.513 72.139 196.378 70.686 192.064C74.346 193.167 78.1115 194.169 81.98 195.066ZM87.0911 210.761C88.8053 215.293 90.7668 219.724 92.9677 224.04C90.0912 223.315 87.2776 222.481 84.4954 221.593L84.4973 221.591C81.6954 217.195 79.1842 212.62 76.9831 207.894C80.2818 208.944 83.6474 209.909 87.0911 210.761ZM108.097 245.075C108.682 245.619 109.271 246.149 109.866 246.65C108.823 246.094 107.79 245.495 106.769 244.853C107.209 244.926 107.653 245.003 108.097 245.073L108.097 245.075ZM113.033 245.768C113.493 245.825 113.95 245.882 114.409 245.933C114.977 246.621 115.552 247.269 116.133 247.879V247.877C115.063 247.229 114.029 246.524 113.033 245.766V245.768ZM109.073 242.383C104.812 238.14 101.142 233.341 98.1614 228.118C100.37 228.58 102.609 228.982 104.863 229.347V229.345C106.801 234.066 109.208 238.578 112.051 242.815C111.054 242.684 110.06 242.54 109.073 242.383ZM96.304 224.808C93.9989 220.494 91.9529 216.044 90.1816 211.485C93.1681 212.165 96.2 212.769 99.2788 213.298C100.614 217.959 102.059 222.306 103.608 226.28C101.144 225.852 98.7112 225.354 96.304 224.808ZM102.577 213.824C105.35 214.242 108.15 214.601 110.985 214.89C111.788 219.449 112.668 223.718 113.618 227.651C111.404 227.421 109.208 227.144 107.032 226.82C105.444 222.878 103.958 218.516 102.575 213.824L102.577 213.824ZM114.042 215.159C116.774 215.388 119.524 215.575 122.307 215.681C122.332 216.093 122.356 216.521 122.381 216.93C122.648 221.218 122.923 224.996 123.198 228.363C121.04 228.277 118.898 228.149 116.77 227.977C115.809 224.12 114.896 219.832 114.04 215.159L114.042 215.159ZM125.136 215.748C126.509 215.779 127.877 215.82 129.26 215.82C130.642 215.82 132.01 215.779 133.383 215.748C133.102 220.374 132.804 224.599 132.488 228.42C131.412 228.444 130.343 228.487 129.261 228.487C128.18 228.487 127.109 228.444 126.035 228.42C125.717 224.597 125.417 220.372 125.134 215.748H125.136ZM136.138 216.93C136.163 216.521 136.187 216.093 136.212 215.681C138.995 215.575 141.746 215.389 144.477 215.159C143.621 219.832 142.708 224.12 141.749 227.975C139.623 228.149 137.481 228.279 135.321 228.361C135.594 224.996 135.867 221.22 136.136 216.93L136.138 216.93ZM147.532 214.89C150.367 214.601 153.17 214.242 155.94 213.824C154.558 218.516 153.072 222.875 151.487 226.818C149.311 227.142 147.114 227.421 144.901 227.649C145.849 223.718 146.727 219.45 147.53 214.89L147.532 214.89ZM159.239 213.297C162.319 212.773 165.351 212.168 168.336 211.485H168.334C166.563 216.044 164.519 220.494 162.211 224.808C159.804 225.353 157.371 225.852 154.907 226.28C156.456 222.306 157.902 217.959 159.237 213.297L159.239 213.297ZM160.354 228.118C157.373 233.341 153.704 238.14 149.443 242.383C148.453 242.538 147.46 242.681 146.464 242.815C149.307 238.577 151.714 234.065 153.653 229.345C155.907 228.982 158.143 228.579 160.354 228.118ZM145.482 245.766C144.487 246.524 143.452 247.229 142.382 247.876C142.963 247.268 143.536 246.62 144.106 245.931C144.565 245.88 145.025 245.823 145.482 245.766ZM150.419 245.073C150.862 245.002 151.304 244.925 151.746 244.849C150.725 245.491 149.692 246.09 148.649 246.645C149.246 246.147 149.835 245.618 150.419 245.073ZM165.546 224.037L165.548 224.039C167.749 219.723 169.71 215.292 171.424 210.76C174.868 209.906 178.234 208.944 181.532 207.891V207.893C179.331 212.619 176.82 217.194 174.018 221.591C171.238 222.48 168.422 223.313 165.547 224.037L165.546 224.037ZM172.604 207.567C174.022 203.589 175.334 199.422 176.535 195.065C180.4 194.168 184.164 193.169 187.83 192.063C186.386 196.381 184.8 200.514 183.07 204.463C179.667 205.608 176.18 206.642 172.604 207.567ZM177.337 192.034C178.334 188.168 179.241 184.178 180.056 180.06C184.17 179.248 188.159 178.34 192.029 177.341C191.085 181.296 190.027 185.134 188.856 188.861C185.13 190.025 181.289 191.082 177.337 192.034ZM195.061 176.54C199.415 175.342 203.583 174.03 207.563 172.609C206.636 176.179 205.601 179.668 204.459 183.074C200.508 184.794 196.373 186.381 192.059 187.834C193.163 184.174 194.164 180.408 195.061 176.54ZM210.756 171.429C215.288 169.715 219.719 167.753 224.035 165.552C223.311 168.429 222.476 171.242 221.589 174.024L221.587 174.023C217.19 176.824 212.615 179.336 207.889 181.537C208.94 178.238 209.904 174.872 210.756 171.429ZM227.324 163.791C232.457 160.993 237.263 157.631 241.654 153.773C241.432 154.937 241.163 156.082 240.91 157.233C236.392 162.693 231.141 167.502 225.308 171.525C226.05 168.986 226.714 166.403 227.324 163.791ZM245.071 150.423C245.614 149.838 246.145 149.249 246.645 148.654C246.09 149.697 245.491 150.729 244.849 151.75C244.921 151.311 244.998 150.867 245.069 150.423L245.071 150.423ZM246.643 135.074C246.671 134.444 246.671 133.804 246.689 133.172C248.096 132.913 249.241 132.653 250.187 132.398H250.186C249.139 133.454 247.945 134.356 246.641 135.074L246.643 135.074ZM246.755 130.346C246.757 129.983 246.781 129.626 246.781 129.262C246.781 128.899 246.757 128.542 246.755 128.179C248.2 128.408 249.624 128.772 251.002 129.262C249.624 129.753 248.2 130.117 246.755 130.346ZM246.689 125.353C246.671 124.719 246.671 124.081 246.643 123.45H246.641C247.945 124.169 249.139 125.07 250.186 126.127C249.239 125.871 248.096 125.614 246.687 125.353L246.689 125.353ZM243.565 100.246C243.451 99.7332 243.351 99.2148 243.231 98.7062C243.936 99.9315 244.597 101.168 245.218 102.419C244.688 101.687 244.132 100.964 243.563 100.246H243.565ZM239.51 95.5548C234.841 90.7442 229.639 86.4833 224.006 82.849C222.979 79.6996 221.854 76.615 220.633 73.595C227.279 78.6277 233.209 84.5435 238.255 91.1781C238.701 92.6252 239.115 94.0841 239.51 95.5548ZM220.252 80.4906H220.25C215.885 77.883 211.369 75.5385 206.725 73.4709C205.371 69.5478 203.88 65.7485 202.254 62.0706H202.252C207.091 64.5269 211.758 67.3012 216.227 70.38C217.692 73.6591 219.033 77.0302 220.25 80.4901L220.252 80.4906ZM203.234 71.9514C199.339 70.3275 195.268 68.8372 191.049 67.4726C189.686 63.2549 188.194 59.1827 186.57 55.2871C190.638 56.7675 194.565 58.3953 198.351 60.1683C200.124 63.9501 201.752 67.8771 203.233 71.9512L203.234 71.9514ZM185.052 51.7957C182.983 47.1519 180.638 42.6357 178.03 38.2711C181.484 39.4924 184.856 40.8335 188.14 42.2943H188.142C191.219 46.7633 193.996 51.4307 196.452 56.2688C192.774 54.6469 188.975 53.1566 185.052 51.7959L185.052 51.7957ZM175.672 34.5147C172.038 28.8813 167.777 23.6798 162.967 19.0106C164.435 19.4053 165.896 19.8196 167.341 20.2653H167.343C173.978 25.3115 179.894 31.2414 184.926 37.8881C181.909 36.6628 178.824 35.5376 175.672 34.5147ZM158.276 14.9582C157.557 14.3888 156.835 13.8331 156.102 13.3049C157.353 13.9254 158.592 14.589 159.815 15.292C159.307 15.1722 158.788 15.0721 158.276 14.9582ZM139.97 12.1994C139.458 12.1582 138.945 12.1248 138.431 12.0895C137.95 11.1765 137.457 10.3459 136.954 9.57814C138.034 10.3635 139.043 11.2412 139.972 12.1994L139.97 12.1994ZM142.581 15.2468C145.648 19.4036 148.209 23.9137 150.208 28.6774C148.211 28.4025 146.198 28.1669 144.17 27.9706C143.059 23.5468 141.613 19.2152 139.846 15.0115C140.759 15.0861 141.674 15.1545 142.581 15.2468ZM141.003 27.6857C139.039 27.5364 137.066 27.4167 135.079 27.344C134.602 21.9856 134.119 17.8407 133.638 14.6619C134.61 14.6933 135.582 14.7247 136.546 14.7777L136.548 14.7758C138.384 18.9502 139.874 23.2678 141.003 27.6857ZM132.243 27.2851C131.248 27.2655 130.26 27.2223 129.259 27.2223C128.257 27.2223 127.27 27.2655 126.272 27.2831C126.728 22.1605 127.209 17.8954 127.704 14.591C128.224 14.5851 128.739 14.5556 129.259 14.5556C129.779 14.5556 130.294 14.587 130.812 14.5929C131.307 17.8975 131.79 22.1625 132.245 27.2831L132.243 27.2851ZM123.437 27.344C121.45 27.4186 119.476 27.5364 117.513 27.6857H117.515C118.644 23.2677 120.134 18.9499 121.97 14.7753C122.936 14.7223 123.908 14.6909 124.878 14.6595C124.399 17.8384 123.914 21.9832 123.439 27.3416L123.437 27.344ZM114.346 27.9723C112.317 28.1687 110.305 28.4043 108.308 28.6792L108.31 28.6772C110.309 23.9137 112.869 19.4036 115.936 15.2466C116.843 15.1543 117.758 15.0856 118.671 15.011C116.904 19.2149 115.457 23.5462 114.348 27.9701L114.346 27.9723ZM118.546 12.1994C119.474 11.2412 120.484 10.3635 121.564 9.57812C121.061 10.3458 120.568 11.1764 120.087 12.0895C119.573 12.1248 119.058 12.1582 118.546 12.1994ZM100.238 14.9601C99.7254 15.074 99.207 15.1741 98.6984 15.2939C99.9237 14.589 101.161 13.9273 102.411 13.3068C101.683 13.8331 100.96 14.3887 100.242 14.9582L100.238 14.9601ZM95.5509 19.0108C90.7403 23.6801 86.4774 28.8816 82.8452 34.5149C79.6957 35.5418 76.6112 36.6669 73.5912 37.8882C78.6239 31.2415 84.5397 25.3116 91.1743 20.2639C92.6214 19.8202 94.0803 19.4055 95.5509 19.0108ZM80.4828 38.2728L80.4867 38.2708C77.8792 42.6357 75.5347 47.1518 73.465 51.7954C69.5419 53.1502 65.7427 54.6405 62.0647 56.2663V56.2683C64.5211 51.4301 67.2974 46.7629 70.3742 42.2938C73.6552 40.829 77.0264 39.4879 80.4862 38.2705L80.4828 38.2728ZM71.9436 55.2903C70.3197 59.1859 68.8294 63.2565 67.4648 67.4758C63.2472 68.8385 59.1749 70.3308 55.2793 71.9546C56.7598 67.8862 58.3875 63.9593 60.1606 60.1733C63.9462 58.3963 67.8734 56.7685 71.9475 55.288L71.9436 55.2903ZM51.7879 73.4726L51.7918 73.4686C47.1481 75.5382 42.6318 77.8826 38.2672 80.4903C39.4886 77.0365 40.8296 73.6652 42.2905 70.3803V70.3783C46.7594 67.3015 51.4268 64.5248 56.265 62.0688C54.6431 65.7465 53.1528 69.5459 51.7921 73.4692L51.7879 73.4726ZM34.5108 82.8483C28.8775 86.4808 23.676 90.7436 19.0067 95.554C19.4014 94.0853 19.8157 92.6245 20.2614 91.1793V91.1774C25.3076 84.5428 31.2375 78.6264 37.8842 73.5943C36.659 76.6122 35.5338 79.6971 34.5108 82.8483ZM14.9539 100.245C14.3845 100.964 13.8288 101.687 13.3006 102.419C13.9211 101.168 14.5848 99.9291 15.2877 98.7059C15.1679 99.2144 15.0678 99.7328 14.9539 100.245ZM11.8751 123.45C11.8477 124.08 11.8477 124.72 11.83 125.353C10.4221 125.612 9.27742 125.871 8.33101 126.126C9.37755 125.07 10.5713 124.169 11.8751 123.45ZM11.7632 128.178C11.7613 128.541 11.7377 128.899 11.7377 129.262C11.7377 129.625 11.7613 129.983 11.7632 130.346H11.7613C10.3161 130.116 8.89257 129.753 7.51418 129.262C8.89257 128.771 10.3161 128.408 11.7613 128.178H11.7632ZM11.83 133.171C11.8476 133.806 11.8476 134.444 11.8751 135.074C10.5713 134.355 9.37752 133.454 8.33098 132.398C9.27739 132.653 10.4202 132.91 11.83 133.171ZM14.9539 158.279C15.0678 158.791 15.1679 159.31 15.2877 159.818C14.5828 158.593 13.9211 157.356 13.3006 156.105C13.8288 156.838 14.3844 157.56 14.9539 158.279ZM19.0066 162.97C23.6759 167.78 28.8774 172.041 34.5107 175.675C35.5376 178.825 36.6627 181.909 37.884 184.929C31.2373 179.897 25.3074 173.981 20.2612 167.346C19.8155 165.899 19.4013 164.44 19.0066 162.97ZM38.2666 178.034C42.6315 180.641 47.1476 182.986 51.7911 185.056C53.146 188.979 54.6363 192.778 56.2621 196.456H56.264C51.4259 194 46.7587 191.223 42.2896 188.146C40.8248 184.865 39.4837 181.494 38.2663 178.034L38.2666 178.034ZM55.2841 186.573C59.1797 188.197 63.2503 189.687 67.4696 191.052C68.8323 195.27 70.3246 199.342 71.9484 203.237C67.88 201.757 63.9531 200.129 60.1671 198.356C58.3921 194.574 56.7646 190.647 55.2841 186.573ZM73.4664 206.729H73.4644C75.534 211.373 77.8784 215.889 80.4861 220.253C77.0322 219.032 73.6609 217.691 70.3761 216.23H70.3741C67.2973 211.761 64.5206 207.094 62.0646 202.256C65.7423 203.878 69.5417 205.368 73.465 206.729L73.4664 206.729ZM82.844 224.01C86.4785 229.643 90.7393 234.845 95.5498 239.514C94.0811 239.119 92.6202 238.705 91.1751 238.259H91.1731C84.5385 233.213 78.6222 227.283 73.5901 220.636C76.608 221.862 79.6929 222.987 82.844 224.01ZM100.243 243.568C100.961 244.138 101.684 244.693 102.416 245.222C101.165 244.601 99.9265 243.937 98.7032 243.235C99.2098 243.352 99.7282 243.452 100.241 243.566L100.243 243.568ZM118.548 246.327C119.061 246.368 119.573 246.402 120.088 246.437C120.569 247.35 121.062 248.181 121.564 248.948L121.562 248.946C120.483 248.161 119.473 247.283 118.545 246.325L118.548 246.327ZM115.935 243.278C112.868 239.121 110.308 234.611 108.309 229.847C110.306 230.122 112.318 230.358 114.347 230.554C115.458 234.978 116.903 239.309 118.67 243.513C117.757 243.438 116.842 243.37 115.935 243.278ZM117.514 230.839C119.477 230.988 121.451 231.108 123.438 231.181C123.915 236.539 124.398 240.684 124.879 243.863C123.907 243.831 122.935 243.8 121.971 243.747L121.969 243.749C120.133 239.574 118.643 235.257 117.514 230.839ZM126.273 231.239C127.269 231.259 128.258 231.3 129.26 231.3C130.261 231.3 131.249 231.257 132.246 231.239C131.791 236.362 131.309 240.627 130.815 243.932C130.294 243.937 129.782 243.969 129.262 243.969C128.741 243.969 128.227 243.937 127.708 243.932C127.21 240.627 126.727 236.362 126.271 231.241L126.273 231.239ZM135.08 231.181C137.067 231.106 139.04 230.988 141.004 230.839H141.002C139.873 235.257 138.382 239.575 136.546 243.749C135.58 243.802 134.608 243.834 133.638 243.865C134.117 240.686 134.602 236.541 135.078 231.183L135.08 231.181ZM144.171 230.552C146.199 230.356 148.212 230.12 150.209 229.845L150.207 229.847C148.208 234.611 145.648 239.121 142.58 243.278C141.673 243.37 140.758 243.439 139.845 243.514C141.612 239.31 143.06 234.978 144.169 230.554L144.171 230.552ZM139.971 246.325C139.042 247.283 138.033 248.161 136.955 248.946C137.458 248.179 137.95 247.348 138.431 246.435C138.944 246.4 139.458 246.366 139.971 246.325ZM158.279 243.564C158.791 243.451 159.31 243.35 159.818 243.231C158.593 243.935 157.356 244.597 156.105 245.218C156.834 244.691 157.556 244.136 158.275 243.566L158.279 243.564ZM162.966 239.514C167.776 234.844 172.039 229.643 175.671 224.01C178.821 222.983 181.905 221.858 184.925 220.636C179.893 227.283 173.977 233.213 167.342 238.261C165.895 238.704 164.436 239.119 162.966 239.514ZM178.034 220.252L178.03 220.254C180.637 215.889 182.982 211.373 185.051 206.729C188.975 205.374 192.774 203.884 196.452 202.258V202.256C193.995 207.094 191.219 211.762 188.142 216.231C184.861 217.696 181.49 219.037 178.03 220.254L178.034 220.252ZM186.573 203.234C188.197 199.339 189.687 195.268 191.052 191.049C195.269 189.686 199.342 188.194 203.237 186.57C201.757 190.638 200.129 194.565 198.356 198.351C194.57 200.128 190.643 201.756 186.569 203.237L186.573 203.234ZM206.729 185.052L206.725 185.056C211.368 182.986 215.885 180.642 220.249 178.034C219.028 181.488 217.687 184.859 216.226 188.144V188.146C211.757 191.223 207.09 194 202.252 196.456C203.873 192.778 205.364 188.979 206.724 185.055L206.729 185.052ZM224.006 175.676C229.639 172.044 234.841 167.781 239.51 162.97C239.115 164.439 238.701 165.9 238.255 167.345V167.347C233.209 173.982 227.279 179.898 220.632 184.93C221.858 181.912 222.983 178.827 224.006 175.676ZM243.568 158.276C244.138 157.557 244.693 156.834 245.221 156.102C244.601 157.353 243.937 158.592 243.234 159.815C243.348 159.311 243.448 158.792 243.562 158.28L243.568 158.276ZM240.833 89.9943C240.464 88.8064 240.104 87.6145 239.704 86.4443L239.702 86.4423C241.239 89.042 242.643 91.7162 243.91 94.4572C242.946 92.9453 241.921 91.4571 240.833 89.9943ZM235.696 83.6975H235.694C230.546 78.031 224.775 72.9632 218.49 68.592C216.579 64.3803 214.451 60.2705 212.112 56.2829C219.782 61.969 226.667 68.6413 232.589 76.1279C233.711 78.602 234.73 81.1349 235.694 83.6975H235.696ZM213.968 65.5665H213.966C209.607 62.8078 205.087 60.3102 200.429 58.0914C198.208 53.434 195.713 48.9139 192.954 44.5528C197.557 46.8344 202.014 49.3929 206.304 52.2164C209.128 56.5067 211.686 60.9637 213.968 65.5665ZM168.526 17.6881C167.061 16.6043 165.573 15.5773 164.063 14.6093V14.6113C166.804 15.8777 169.478 17.2816 172.078 18.8191C170.906 18.4166 169.714 18.0572 168.526 17.6881ZM132.393 8.33609C133.45 9.38263 134.351 10.5765 135.07 11.8803C134.439 11.8528 133.799 11.8528 133.167 11.8351C132.906 10.4253 132.649 9.2825 132.393 8.33609ZM129.258 11.7408C128.894 11.7408 128.537 11.7644 128.174 11.7663C128.404 10.3212 128.767 8.89766 129.258 7.51926C129.749 8.89766 130.112 10.3212 130.342 11.7663C129.978 11.7644 129.621 11.7408 129.258 11.7408ZM125.348 11.8331C124.714 11.8508 124.076 11.8508 123.446 11.8783V11.8802C124.164 10.5764 125.066 9.3826 126.122 8.33606C125.867 9.28247 125.61 10.4252 125.348 11.835L125.348 11.8331ZM89.9892 17.6881C88.8013 18.0572 87.6094 18.4165 86.4392 18.8171L86.4372 18.8191C89.0369 17.2816 91.7111 15.8777 94.4521 14.6113C92.9402 15.5754 91.452 16.6003 89.9892 17.6881ZM65.5609 44.5528V44.5547C62.8022 48.9138 60.3046 53.4337 58.0859 58.0914C53.4284 60.3121 48.9083 62.8078 44.5472 65.5665C46.8288 60.964 49.3873 56.507 52.2108 52.2163C56.5011 49.3928 60.9581 46.8344 65.5609 44.5528ZM40.0253 68.59V68.592C33.74 72.9628 27.9695 78.0304 22.8207 83.6974C23.7868 81.135 24.8058 78.602 25.925 76.1299V76.1279C31.8469 68.6408 38.7328 61.967 46.4024 56.2829C44.0639 60.2708 41.9335 64.3802 40.0247 68.592L40.0253 68.59ZM17.6825 89.9943C16.5987 91.4591 15.5717 92.9474 14.6037 94.4574H14.6057C15.8721 91.7163 17.2761 89.0422 18.8135 86.4425C18.411 87.6147 18.0517 88.8064 17.6825 89.9943ZM17.6825 168.53C18.0516 169.718 18.411 170.91 18.8115 172.08L18.8135 172.082C17.2761 169.482 15.8721 166.808 14.6057 164.067C15.5698 165.579 16.5947 167.067 17.6825 168.53ZM22.8192 174.827H22.8212C27.9694 180.493 33.7404 185.561 40.0257 189.932C41.9362 194.144 44.0647 198.254 46.4035 202.241C38.7339 196.555 31.8479 189.883 25.9261 182.396C24.8049 179.922 23.7859 177.389 22.8218 174.827H22.8192ZM44.5477 192.958H44.5497C48.9087 195.717 53.4287 198.214 58.0863 200.433C60.3071 205.09 62.8027 209.61 65.5614 213.972C60.9589 211.69 56.5019 209.131 52.2112 206.308C49.3877 202.018 46.8293 197.561 44.5477 192.958ZM89.9892 240.836C91.454 241.92 92.9423 242.947 94.4523 243.915V243.913C91.7112 242.647 89.0371 241.243 86.4374 239.705C87.6096 240.108 88.8013 240.467 89.9892 240.836ZM126.122 250.188C125.066 249.142 124.164 247.948 123.446 246.644C124.076 246.672 124.716 246.672 125.348 246.689C125.61 248.099 125.867 249.242 126.122 250.188ZM129.258 246.783C129.621 246.783 129.978 246.76 130.342 246.758C130.112 248.203 129.749 249.627 129.258 251.005C128.767 249.627 128.404 248.203 128.174 246.758C128.537 246.76 128.894 246.783 129.258 246.783ZM133.167 246.691C133.801 246.674 134.439 246.674 135.07 246.646V246.644C134.351 247.948 133.45 249.142 132.393 250.188C132.649 249.242 132.906 248.099 133.167 246.689L133.167 246.691ZM168.526 240.836C169.714 240.467 170.906 240.108 172.076 239.707L172.078 239.705C169.479 241.243 166.804 242.647 164.063 243.913C165.575 242.949 167.063 241.924 168.526 240.836ZM192.955 213.972V213.97C195.713 209.611 198.211 205.091 200.43 200.433C205.087 198.212 209.607 195.717 213.968 192.958C211.687 197.56 209.128 202.017 206.305 206.308C202.014 209.132 197.557 211.69 192.955 213.972ZM218.49 189.934V189.932C224.775 185.562 230.546 180.494 235.695 174.827C234.729 177.389 233.71 179.922 232.59 182.394V182.396C226.669 189.884 219.783 196.557 212.113 202.241C214.452 198.254 216.582 194.144 218.491 189.932L218.49 189.934ZM240.833 168.53C241.917 167.065 242.944 165.577 243.912 164.067H243.91C242.643 166.808 241.239 169.482 239.702 172.082C240.104 170.91 240.464 169.718 240.833 168.53ZM235.025 74.6933C232.996 70.2656 230.717 65.9576 228.198 61.791C233.945 69.1465 238.755 77.189 242.523 85.7302C240.275 81.8857 237.772 78.1984 235.025 74.6933ZM227.436 66.0008C221.643 60.0669 215.238 54.7674 208.328 50.1886C203.749 43.279 198.45 36.8741 192.516 31.0815C199.793 35.2147 206.626 40.0821 212.911 45.6059C218.434 51.8911 223.302 58.7243 227.436 66.0008ZM183.824 23.4928C180.319 20.7459 176.631 18.2425 172.787 15.9961C181.328 19.7622 189.369 24.5725 196.726 30.32C192.559 27.8008 188.252 25.5211 183.824 23.4928ZM74.693 23.4928C70.2653 25.5212 65.9573 27.8008 61.7907 30.32C69.1462 24.5725 77.1887 19.7621 85.7299 15.9941C81.8854 18.2424 78.1981 20.7458 74.693 23.4928ZM66.0005 31.082C60.0666 36.8741 54.767 43.2795 50.1883 50.1891C43.2787 54.7681 36.8738 60.0674 31.0812 66.0013C35.2144 58.7243 40.0818 51.8916 45.6056 45.6064C51.8908 40.0831 58.724 35.2154 66.0005 31.082ZM23.4926 74.6938C20.7456 78.1987 18.2423 81.8864 15.9959 85.7307C19.7619 77.1895 24.5723 69.149 30.3197 61.7915C27.8005 65.9581 25.5208 70.2659 23.4926 74.6938ZM23.4926 183.825C25.5209 188.252 27.8005 192.56 30.3197 196.727C24.5723 189.371 19.7618 181.329 15.9939 172.788C18.2421 176.632 20.7456 180.319 23.4926 183.825ZM31.0817 192.517C36.8739 198.451 43.2793 203.75 50.1889 208.329C54.7678 215.239 60.0671 221.644 66.0011 227.436C58.724 223.303 51.8914 218.436 45.6061 212.912C40.0829 206.627 35.2151 199.794 31.0817 192.517ZM74.6936 235.025C78.1985 237.772 81.8861 240.275 85.7305 242.522C77.1893 238.756 69.1487 233.945 61.7913 228.198C65.9579 230.717 70.2656 232.997 74.6936 235.025ZM183.824 235.025C188.252 232.997 192.56 230.717 196.727 228.198C189.371 233.945 181.329 238.756 172.787 242.524C176.632 240.275 180.319 237.772 183.824 235.025ZM192.517 227.436C198.451 221.644 203.75 215.238 208.329 208.329C215.239 203.75 221.643 198.45 227.436 192.516C223.303 199.793 218.435 206.626 212.912 212.911C206.626 218.435 199.793 223.302 192.517 227.436ZM235.025 183.824C237.772 180.319 240.275 176.631 242.521 172.787C238.755 181.328 233.945 189.369 228.198 196.726C230.717 192.56 232.996 188.252 235.025 183.824ZM57.7263 29.9696C52.6625 34.1303 47.942 38.6933 43.6126 43.6143C38.692 47.9439 34.1289 52.6642 29.9678 57.728C37.6807 47.0545 47.0523 37.6824 57.7263 29.9696ZM29.9678 200.789C34.1285 205.853 38.6915 210.573 43.6126 214.902C47.9421 219.823 52.6625 224.386 57.7263 228.547C47.0528 220.834 37.6807 211.463 29.9678 200.789ZM200.787 228.547C205.851 224.386 210.571 219.823 214.901 214.902C219.821 210.573 224.384 205.853 228.545 200.789C220.833 211.462 211.461 220.834 200.787 228.547Z" fill="#FF2F61" fill-opacity="0.15"/>
</g>
<defs>
<filter id="filter0_f_148_53" x="0" y="0" width="258.522" height="258.521" filterUnits="userSpaceOnUse" color-interpolation-filters="sRGB">
<feFlood flood-opacity="0" result="BackgroundImageFix"/>
<feBlend mode="normal" in="SourceGraphic" in2="BackgroundImageFix" result="shape"/>
<feGaussianBlur stdDeviation="2" result="effect1_foregroundBlur_148_53"/>
</filter>
</defs>
</svg>
