<svg width="42" height="42" viewBox="0 0 42 42" fill="none" xmlns="http://www.w3.org/2000/svg">
<path d="M41.7555 20.5641L29.1546 12.8461L21.4296 0.245499C21.3341 0.0954519 21.1703 0 20.9932 0C20.816 0 20.6522 0.0954488 20.5568 0.245499L12.8454 12.8461L0.245506 20.5641C0.095455 20.6596 0 20.8234 0 21.0005C0 21.1777 0.095453 21.3415 0.245506 21.4369L12.8454 29.155L20.5636 41.7545C20.659 41.9045 20.8229 42 21 42C21.1771 42 21.341 41.9046 21.4364 41.7545L29.1546 29.155L41.7545 21.4369C41.9045 21.3415 42 21.1777 42 21.0005C41.9935 20.8234 41.905 20.6527 41.7549 20.5641H41.7555ZM28.8554 28.1321L24.8598 24.1366L29.162 21.5049H39.6765L28.8554 28.1321ZM2.31897 21.5118H12.8325L17.1347 24.1435L13.1391 28.1391L2.31897 21.5118ZM13.14 13.8621L17.1356 17.8576L12.8334 20.4894H2.31887L13.14 13.8621ZM23.7767 23.6117C23.7084 23.6525 23.6473 23.714 23.6065 23.7819L20.9949 28.0431L18.3906 23.7754C18.3497 23.7071 18.2883 23.646 18.2203 23.6051L13.959 20.9936L18.2203 18.3821C18.2887 18.3412 18.3498 18.2797 18.3906 18.2118L21.0022 13.9506L23.6138 18.2118C23.6547 18.2801 23.7161 18.3412 23.7841 18.3821L28.0454 20.9936L23.7767 23.6117ZM24.1452 17.1344L21.5134 12.8323L21.513 2.31906L28.1339 13.1398L24.1452 17.1344ZM20.4905 12.8323L17.8587 17.1344L13.8631 13.1393L20.4905 2.31854V12.8323ZM17.8587 24.8665L20.4905 29.1687V39.6819L13.8631 28.8611L17.8587 24.8665ZM21.5065 29.1621L24.1383 24.86L28.1339 28.8556L21.5065 39.6763V29.1621ZM29.1632 20.4896L24.861 17.8578L28.8566 13.8623L39.6766 20.4896H29.1632Z" fill="#FF2F61"/>
</svg>
