<?xml version="1.0" encoding="UTF-8"?>
<svg id="Calque_2" data-name="Calque 2" xmlns="http://www.w3.org/2000/svg" viewBox="0 0 47.18 37.52">
  <defs>
    <style>
      .cls-1 {
        fill: #fff;
      }
    </style>
  </defs>
  <g id="OBJECTS">
    <path class="cls-1" d="m15.25,37.52c-2.62,0-5.29-.35-7.92-1.08-1.74-.48-3.45-1.16-5.1-2.04-.66-.35-1.15-.65-1.61-.96-.21-.16-.65-.51-.6-1.1l.04-.53.5-.33c.47-.24.84-.18,1.24-.13,2.17.21,4.56-.09,6.85-.89l.2-.07c.59-.2,1.76-.61,2.73-1.09-2.04-.68-5.2-2.18-6.68-6.22-.25-.63.03-1.08.17-1.25.07-.09.21-.23.44-.32-2.03-1.61-3.47-4.05-3.8-6.68-.05-.39-.09-.77-.06-1.2.06-.68.44-.96.66-1.07.15-.07.51-.2.96-.03-1.8-2.91-2.35-7.18-.31-10.23.27-.4.6-.61.99-.64.6-.05.96.37,1.08.51,4.04,4.6,9.17,7.34,16.09,8.55-.07-1.09,0-2.06.23-3,.35-1.41,1.02-2.76,1.95-3.91.88-1.09,2.01-2.01,3.26-2.66C27.77.5,29.17.11,30.56.02c1.47-.09,2.94.14,4.28.69,1.01.41,1.92.97,2.78,1.7.09.08.19.17.28.26,1.66-.44,3.17-1.03,4.61-1.8.36-.18.75-.21,1.1-.07l.27.15c.42.33.56.88.38,1.35-.32,1.03-.71,1.85-1.21,2.57.56-.15,1.09-.33,1.53-.53h0c.36-.16,1.6-.29,2.12.04l.46.29.02.57c0,.75-.59.99-1.02,1.17-.12.05-.37.15-.48.22-.85,1.1-2.24,2.06-3.47,2.91-.41.28-.81.55-1.15.81-.04.03-.08.06-.12.09-.06,8.38-2.52,15.04-7.31,19.8-4.75,4.72-11.39,7.26-18.39,7.26Zm-10.6-4.17c1.05.47,2.13.85,3.21,1.15,9.01,2.49,18.35.32,24.37-5.67,4.46-4.43,6.72-10.71,6.72-18.69,0-.76.59-1.15.84-1.32l.08-.06c.36-.27.78-.56,1.22-.86.36-.25.74-.51,1.11-.78-.64.14-1.29.25-1.91.36,0,0,0,0,0,0h0l-.34-1.97c.21-.1.74-.81.96-1.12.12-.16.23-.31.32-.43.11-.13.21-.27.3-.42-1.1.46-2.26.84-3.48,1.15-.49.12-.97,0-1.32-.37-.17-.19-.28-.3-.39-.4-.71-.6-1.44-1.05-2.25-1.38-1.06-.43-2.24-.62-3.4-.54-1.11.07-2.23.39-3.25.92-1.01.53-1.92,1.27-2.63,2.15-.75.92-1.29,2-1.56,3.13-.24.98-.26,2.04-.08,3.33.02.17.09.66-.29,1.05-.26.26-.6.35-1.02.29-7.59-1.13-13.25-3.89-17.73-8.66-1.21,2.79-.14,6.7,1.83,8.56.33.3.66.61,1.02.9l1.71,1.33-2.12.44c-.38.08-1.6-.09-2.86-.53.47,2.73,2.42,5.16,4.93,6.12.36.15.68.25.95.3l5.1.87-5.06,1.1c-.58.13-1.19.23-2.39.19,1.36,2.55,3.6,3.53,5.86,4.19.1.01.19.02.29.03.22.02.44.05.67.1l1.2.27-.62,1.35-.11.09c-.92,1.25-3.08,2.08-5.05,2.75l-.2.07c-1.52.53-3.09.87-4.64,1Zm2.1-10.98s0,.01,0,.02c0,0,0-.01,0-.02Zm-4.26-7.97s.02,0,.03.01h-.03ZM37.56,2.76s0,0,0,0c0,0,0,0,0,0Z"/>
  </g>
</svg>